<svg width="419" height="407" viewBox="0 0 419 407" fill="none" xmlns="http://www.w3.org/2000/svg">
<g filter="url(#filter0_i_3_103)">
<path d="M177.46 39.6062C197.493 17.6918 224.767 21.1767 242.208 39.6062L252.84 51.5618C254.656 53.487 256.902 54.9814 259.406 55.9296C261.91 56.8778 264.605 57.2546 267.283 57.0309L286.19 51.5618C311.972 46.2072 335.396 64.8911 335.396 93.9025V104.841C335.946 110.793 341.315 114.838 346.853 117.47L363.941 124.402C388.649 136.129 394.829 163.957 376.825 187.309L371.718 193.859C367.123 199.888 368.065 207.799 372.635 213.828L377.742 220.785C396.361 243.043 385.86 273.58 359.567 284.251L344.863 290.229C339.311 292.468 337.138 296.334 336.117 302.07L335.082 320.754C331.508 346.382 308.07 357.969 289.254 355.387L266.864 349.562C261.482 348.824 254.791 350.567 251.204 356.023L243.125 366.758C223.078 388.723 196.013 385.073 182.37 372.227L167.443 354.675C163.554 351.012 158.631 347.883 152.739 350.033L130.191 356.023C111.572 358.592 89.6529 344.691 86.1438 326.745L83.5512 300.773C83.0293 298.111 81.863 295.607 80.1487 293.468C78.4344 291.33 76.2212 289.618 73.6916 288.474L57.8744 283.196C34.083 272.423 26.122 246.362 39.7788 224.6L48.6826 212.619C50.4365 209.826 51.3282 206.602 51.2516 203.33C51.175 200.059 50.1334 196.878 48.2505 194.164L41.5988 185.007C22.7831 158.984 35.7983 129.884 63.688 121.159L69.8421 119.251C76.6246 117.114 83.1977 111.632 83.7476 104.726L85.1225 87.9629C87.3484 60.7448 112.907 45.1389 139.802 53.0754L148.509 55.6445C156.889 58.8242 163.462 56.1151 168.045 51.2693L177.46 39.6062V39.6062Z" fill="url(#paint0_linear_3_103)"/>
<path d="M177.46 39.6062C197.493 17.6918 224.767 21.1767 242.208 39.6062L252.84 51.5618C254.656 53.487 256.902 54.9814 259.406 55.9296C261.91 56.8778 264.605 57.2546 267.283 57.0309L286.19 51.5618C311.972 46.2072 335.396 64.8911 335.396 93.9025V104.841C335.946 110.793 341.315 114.838 346.853 117.47L363.941 124.402C388.649 136.129 394.829 163.957 376.825 187.309L371.718 193.859C367.123 199.888 368.065 207.799 372.635 213.828L377.742 220.785C396.361 243.043 385.86 273.58 359.567 284.251L344.863 290.229C339.311 292.468 337.138 296.334 336.117 302.07L335.082 320.754C331.508 346.382 308.07 357.969 289.254 355.387L266.864 349.562C261.482 348.824 254.791 350.567 251.204 356.023L243.125 366.758C223.078 388.723 196.013 385.073 182.37 372.227L167.443 354.675C163.554 351.012 158.631 347.883 152.739 350.033L130.191 356.023C111.572 358.592 89.6529 344.691 86.1438 326.745L83.5512 300.773C83.0293 298.111 81.863 295.607 80.1487 293.468C78.4344 291.33 76.2212 289.618 73.6916 288.474L57.8744 283.196C34.083 272.423 26.122 246.362 39.7788 224.6L48.6826 212.619C50.4365 209.826 51.3282 206.602 51.2516 203.33C51.175 200.059 50.1334 196.878 48.2505 194.164L41.5988 185.007C22.7831 158.984 35.7983 129.884 63.688 121.159L69.8421 119.251C76.6246 117.114 83.1977 111.632 83.7476 104.726L85.1225 87.9629C87.3484 60.7448 112.907 45.1389 139.802 53.0754L148.509 55.6445C156.889 58.8242 163.462 56.1151 168.045 51.2693L177.46 39.6062V39.6062Z" fill="url(#paint1_radial_3_103)"/>
<path d="M177.46 39.6062C197.493 17.6918 224.767 21.1767 242.208 39.6062L252.84 51.5618C254.656 53.487 256.902 54.9814 259.406 55.9296C261.91 56.8778 264.605 57.2546 267.283 57.0309L286.19 51.5618C311.972 46.2072 335.396 64.8911 335.396 93.9025V104.841C335.946 110.793 341.315 114.838 346.853 117.47L363.941 124.402C388.649 136.129 394.829 163.957 376.825 187.309L371.718 193.859C367.123 199.888 368.065 207.799 372.635 213.828L377.742 220.785C396.361 243.043 385.86 273.58 359.567 284.251L344.863 290.229C339.311 292.468 337.138 296.334 336.117 302.07L335.082 320.754C331.508 346.382 308.07 357.969 289.254 355.387L266.864 349.562C261.482 348.824 254.791 350.567 251.204 356.023L243.125 366.758C223.078 388.723 196.013 385.073 182.37 372.227L167.443 354.675C163.554 351.012 158.631 347.883 152.739 350.033L130.191 356.023C111.572 358.592 89.6529 344.691 86.1438 326.745L83.5512 300.773C83.0293 298.111 81.863 295.607 80.1487 293.468C78.4344 291.33 76.2212 289.618 73.6916 288.474L57.8744 283.196C34.083 272.423 26.122 246.362 39.7788 224.6L48.6826 212.619C50.4365 209.826 51.3282 206.602 51.2516 203.33C51.175 200.059 50.1334 196.878 48.2505 194.164L41.5988 185.007C22.7831 158.984 35.7983 129.884 63.688 121.159L69.8421 119.251C76.6246 117.114 83.1977 111.632 83.7476 104.726L85.1225 87.9629C87.3484 60.7448 112.907 45.1389 139.802 53.0754L148.509 55.6445C156.889 58.8242 163.462 56.1151 168.045 51.2693L177.46 39.6062V39.6062Z" fill="url(#paint2_radial_3_103)"/>
<path d="M177.46 39.6062C197.493 17.6918 224.767 21.1767 242.208 39.6062L252.84 51.5618C254.656 53.487 256.902 54.9814 259.406 55.9296C261.91 56.8778 264.605 57.2546 267.283 57.0309L286.19 51.5618C311.972 46.2072 335.396 64.8911 335.396 93.9025V104.841C335.946 110.793 341.315 114.838 346.853 117.47L363.941 124.402C388.649 136.129 394.829 163.957 376.825 187.309L371.718 193.859C367.123 199.888 368.065 207.799 372.635 213.828L377.742 220.785C396.361 243.043 385.86 273.58 359.567 284.251L344.863 290.229C339.311 292.468 337.138 296.334 336.117 302.07L335.082 320.754C331.508 346.382 308.07 357.969 289.254 355.387L266.864 349.562C261.482 348.824 254.791 350.567 251.204 356.023L243.125 366.758C223.078 388.723 196.013 385.073 182.37 372.227L167.443 354.675C163.554 351.012 158.631 347.883 152.739 350.033L130.191 356.023C111.572 358.592 89.6529 344.691 86.1438 326.745L83.5512 300.773C83.0293 298.111 81.863 295.607 80.1487 293.468C78.4344 291.33 76.2212 289.618 73.6916 288.474L57.8744 283.196C34.083 272.423 26.122 246.362 39.7788 224.6L48.6826 212.619C50.4365 209.826 51.3282 206.602 51.2516 203.33C51.175 200.059 50.1334 196.878 48.2505 194.164L41.5988 185.007C22.7831 158.984 35.7983 129.884 63.688 121.159L69.8421 119.251C76.6246 117.114 83.1977 111.632 83.7476 104.726L85.1225 87.9629C87.3484 60.7448 112.907 45.1389 139.802 53.0754L148.509 55.6445C156.889 58.8242 163.462 56.1151 168.045 51.2693L177.46 39.6062V39.6062Z" fill="url(#paint3_radial_3_103)"/>
<path d="M177.46 39.6062C197.493 17.6918 224.767 21.1767 242.208 39.6062L252.84 51.5618C254.656 53.487 256.902 54.9814 259.406 55.9296C261.91 56.8778 264.605 57.2546 267.283 57.0309L286.19 51.5618C311.972 46.2072 335.396 64.8911 335.396 93.9025V104.841C335.946 110.793 341.315 114.838 346.853 117.47L363.941 124.402C388.649 136.129 394.829 163.957 376.825 187.309L371.718 193.859C367.123 199.888 368.065 207.799 372.635 213.828L377.742 220.785C396.361 243.043 385.86 273.58 359.567 284.251L344.863 290.229C339.311 292.468 337.138 296.334 336.117 302.07L335.082 320.754C331.508 346.382 308.07 357.969 289.254 355.387L266.864 349.562C261.482 348.824 254.791 350.567 251.204 356.023L243.125 366.758C223.078 388.723 196.013 385.073 182.37 372.227L167.443 354.675C163.554 351.012 158.631 347.883 152.739 350.033L130.191 356.023C111.572 358.592 89.6529 344.691 86.1438 326.745L83.5512 300.773C83.0293 298.111 81.863 295.607 80.1487 293.468C78.4344 291.33 76.2212 289.618 73.6916 288.474L57.8744 283.196C34.083 272.423 26.122 246.362 39.7788 224.6L48.6826 212.619C50.4365 209.826 51.3282 206.602 51.2516 203.33C51.175 200.059 50.1334 196.878 48.2505 194.164L41.5988 185.007C22.7831 158.984 35.7983 129.884 63.688 121.159L69.8421 119.251C76.6246 117.114 83.1977 111.632 83.7476 104.726L85.1225 87.9629C87.3484 60.7448 112.907 45.1389 139.802 53.0754L148.509 55.6445C156.889 58.8242 163.462 56.1151 168.045 51.2693L177.46 39.6062V39.6062Z" fill="url(#paint4_radial_3_103)"/>
<path d="M177.46 39.6062C197.493 17.6918 224.767 21.1767 242.208 39.6062L252.84 51.5618C254.656 53.487 256.902 54.9814 259.406 55.9296C261.91 56.8778 264.605 57.2546 267.283 57.0309L286.19 51.5618C311.972 46.2072 335.396 64.8911 335.396 93.9025V104.841C335.946 110.793 341.315 114.838 346.853 117.47L363.941 124.402C388.649 136.129 394.829 163.957 376.825 187.309L371.718 193.859C367.123 199.888 368.065 207.799 372.635 213.828L377.742 220.785C396.361 243.043 385.86 273.58 359.567 284.251L344.863 290.229C339.311 292.468 337.138 296.334 336.117 302.07L335.082 320.754C331.508 346.382 308.07 357.969 289.254 355.387L266.864 349.562C261.482 348.824 254.791 350.567 251.204 356.023L243.125 366.758C223.078 388.723 196.013 385.073 182.37 372.227L167.443 354.675C163.554 351.012 158.631 347.883 152.739 350.033L130.191 356.023C111.572 358.592 89.6529 344.691 86.1438 326.745L83.5512 300.773C83.0293 298.111 81.863 295.607 80.1487 293.468C78.4344 291.33 76.2212 289.618 73.6916 288.474L57.8744 283.196C34.083 272.423 26.122 246.362 39.7788 224.6L48.6826 212.619C50.4365 209.826 51.3282 206.602 51.2516 203.33C51.175 200.059 50.1334 196.878 48.2505 194.164L41.5988 185.007C22.7831 158.984 35.7983 129.884 63.688 121.159L69.8421 119.251C76.6246 117.114 83.1977 111.632 83.7476 104.726L85.1225 87.9629C87.3484 60.7448 112.907 45.1389 139.802 53.0754L148.509 55.6445C156.889 58.8242 163.462 56.1151 168.045 51.2693L177.46 39.6062V39.6062Z" fill="url(#paint5_radial_3_103)"/>
<path d="M177.46 39.6062C197.493 17.6918 224.767 21.1767 242.208 39.6062L252.84 51.5618C254.656 53.487 256.902 54.9814 259.406 55.9296C261.91 56.8778 264.605 57.2546 267.283 57.0309L286.19 51.5618C311.972 46.2072 335.396 64.8911 335.396 93.9025V104.841C335.946 110.793 341.315 114.838 346.853 117.47L363.941 124.402C388.649 136.129 394.829 163.957 376.825 187.309L371.718 193.859C367.123 199.888 368.065 207.799 372.635 213.828L377.742 220.785C396.361 243.043 385.86 273.58 359.567 284.251L344.863 290.229C339.311 292.468 337.138 296.334 336.117 302.07L335.082 320.754C331.508 346.382 308.07 357.969 289.254 355.387L266.864 349.562C261.482 348.824 254.791 350.567 251.204 356.023L243.125 366.758C223.078 388.723 196.013 385.073 182.37 372.227L167.443 354.675C163.554 351.012 158.631 347.883 152.739 350.033L130.191 356.023C111.572 358.592 89.6529 344.691 86.1438 326.745L83.5512 300.773C83.0293 298.111 81.863 295.607 80.1487 293.468C78.4344 291.33 76.2212 289.618 73.6916 288.474L57.8744 283.196C34.083 272.423 26.122 246.362 39.7788 224.6L48.6826 212.619C50.4365 209.826 51.3282 206.602 51.2516 203.33C51.175 200.059 50.1334 196.878 48.2505 194.164L41.5988 185.007C22.7831 158.984 35.7983 129.884 63.688 121.159L69.8421 119.251C76.6246 117.114 83.1977 111.632 83.7476 104.726L85.1225 87.9629C87.3484 60.7448 112.907 45.1389 139.802 53.0754L148.509 55.6445C156.889 58.8242 163.462 56.1151 168.045 51.2693L177.46 39.6062V39.6062Z" fill="url(#paint6_radial_3_103)"/>
<path d="M177.46 39.6062C197.493 17.6918 224.767 21.1767 242.208 39.6062L252.84 51.5618C254.656 53.487 256.902 54.9814 259.406 55.9296C261.91 56.8778 264.605 57.2546 267.283 57.0309L286.19 51.5618C311.972 46.2072 335.396 64.8911 335.396 93.9025V104.841C335.946 110.793 341.315 114.838 346.853 117.47L363.941 124.402C388.649 136.129 394.829 163.957 376.825 187.309L371.718 193.859C367.123 199.888 368.065 207.799 372.635 213.828L377.742 220.785C396.361 243.043 385.86 273.58 359.567 284.251L344.863 290.229C339.311 292.468 337.138 296.334 336.117 302.07L335.082 320.754C331.508 346.382 308.07 357.969 289.254 355.387L266.864 349.562C261.482 348.824 254.791 350.567 251.204 356.023L243.125 366.758C223.078 388.723 196.013 385.073 182.37 372.227L167.443 354.675C163.554 351.012 158.631 347.883 152.739 350.033L130.191 356.023C111.572 358.592 89.6529 344.691 86.1438 326.745L83.5512 300.773C83.0293 298.111 81.863 295.607 80.1487 293.468C78.4344 291.33 76.2212 289.618 73.6916 288.474L57.8744 283.196C34.083 272.423 26.122 246.362 39.7788 224.6L48.6826 212.619C50.4365 209.826 51.3282 206.602 51.2516 203.33C51.175 200.059 50.1334 196.878 48.2505 194.164L41.5988 185.007C22.7831 158.984 35.7983 129.884 63.688 121.159L69.8421 119.251C76.6246 117.114 83.1977 111.632 83.7476 104.726L85.1225 87.9629C87.3484 60.7448 112.907 45.1389 139.802 53.0754L148.509 55.6445C156.889 58.8242 163.462 56.1151 168.045 51.2693L177.46 39.6062V39.6062Z" fill="url(#paint7_radial_3_103)"/>
<path d="M177.46 39.6062C197.493 17.6918 224.767 21.1767 242.208 39.6062L252.84 51.5618C254.656 53.487 256.902 54.9814 259.406 55.9296C261.91 56.8778 264.605 57.2546 267.283 57.0309L286.19 51.5618C311.972 46.2072 335.396 64.8911 335.396 93.9025V104.841C335.946 110.793 341.315 114.838 346.853 117.47L363.941 124.402C388.649 136.129 394.829 163.957 376.825 187.309L371.718 193.859C367.123 199.888 368.065 207.799 372.635 213.828L377.742 220.785C396.361 243.043 385.86 273.58 359.567 284.251L344.863 290.229C339.311 292.468 337.138 296.334 336.117 302.07L335.082 320.754C331.508 346.382 308.07 357.969 289.254 355.387L266.864 349.562C261.482 348.824 254.791 350.567 251.204 356.023L243.125 366.758C223.078 388.723 196.013 385.073 182.37 372.227L167.443 354.675C163.554 351.012 158.631 347.883 152.739 350.033L130.191 356.023C111.572 358.592 89.6529 344.691 86.1438 326.745L83.5512 300.773C83.0293 298.111 81.863 295.607 80.1487 293.468C78.4344 291.33 76.2212 289.618 73.6916 288.474L57.8744 283.196C34.083 272.423 26.122 246.362 39.7788 224.6L48.6826 212.619C50.4365 209.826 51.3282 206.602 51.2516 203.33C51.175 200.059 50.1334 196.878 48.2505 194.164L41.5988 185.007C22.7831 158.984 35.7983 129.884 63.688 121.159L69.8421 119.251C76.6246 117.114 83.1977 111.632 83.7476 104.726L85.1225 87.9629C87.3484 60.7448 112.907 45.1389 139.802 53.0754L148.509 55.6445C156.889 58.8242 163.462 56.1151 168.045 51.2693L177.46 39.6062V39.6062Z" fill="url(#paint8_radial_3_103)"/>
<path d="M177.46 39.6062C197.493 17.6918 224.767 21.1767 242.208 39.6062L252.84 51.5618C254.656 53.487 256.902 54.9814 259.406 55.9296C261.91 56.8778 264.605 57.2546 267.283 57.0309L286.19 51.5618C311.972 46.2072 335.396 64.8911 335.396 93.9025V104.841C335.946 110.793 341.315 114.838 346.853 117.47L363.941 124.402C388.649 136.129 394.829 163.957 376.825 187.309L371.718 193.859C367.123 199.888 368.065 207.799 372.635 213.828L377.742 220.785C396.361 243.043 385.86 273.58 359.567 284.251L344.863 290.229C339.311 292.468 337.138 296.334 336.117 302.07L335.082 320.754C331.508 346.382 308.07 357.969 289.254 355.387L266.864 349.562C261.482 348.824 254.791 350.567 251.204 356.023L243.125 366.758C223.078 388.723 196.013 385.073 182.37 372.227L167.443 354.675C163.554 351.012 158.631 347.883 152.739 350.033L130.191 356.023C111.572 358.592 89.6529 344.691 86.1438 326.745L83.5512 300.773C83.0293 298.111 81.863 295.607 80.1487 293.468C78.4344 291.33 76.2212 289.618 73.6916 288.474L57.8744 283.196C34.083 272.423 26.122 246.362 39.7788 224.6L48.6826 212.619C50.4365 209.826 51.3282 206.602 51.2516 203.33C51.175 200.059 50.1334 196.878 48.2505 194.164L41.5988 185.007C22.7831 158.984 35.7983 129.884 63.688 121.159L69.8421 119.251C76.6246 117.114 83.1977 111.632 83.7476 104.726L85.1225 87.9629C87.3484 60.7448 112.907 45.1389 139.802 53.0754L148.509 55.6445C156.889 58.8242 163.462 56.1151 168.045 51.2693L177.46 39.6062V39.6062Z" fill="url(#paint9_radial_3_103)"/>
</g>
<g filter="url(#filter1_i_3_103)">
<path d="M209.971 339.807C287.657 339.807 350.638 278.63 350.638 203.169C350.638 127.709 287.657 66.5318 209.971 66.5318C132.286 66.5318 69.3052 127.709 69.3052 203.169C69.3052 278.642 132.286 339.807 209.971 339.807Z" fill="url(#paint10_radial_3_103)"/>
</g>
<g opacity="0.44" filter="url(#filter2_f_3_103)">
<path d="M123.422 248.524C133.701 248.524 143.559 244.558 150.827 237.498C158.096 230.437 162.179 220.862 162.179 210.877C162.179 200.892 158.096 191.316 150.827 184.256C143.559 177.196 133.701 173.229 123.422 173.229C113.143 173.229 103.284 177.196 96.016 184.256C88.7476 191.316 84.6642 200.892 84.6642 210.877C84.6642 220.862 88.7476 230.437 96.016 237.498C103.284 244.558 113.143 248.524 123.422 248.524V248.524Z" fill="url(#paint11_radial_3_103)"/>
</g>
<g opacity="0.44" filter="url(#filter3_f_3_103)">
<path d="M296.521 248.524C306.8 248.524 316.658 244.558 323.927 237.498C331.195 230.437 335.279 220.862 335.279 210.877C335.279 200.892 331.195 191.316 323.927 184.256C316.658 177.196 306.8 173.229 296.521 173.229C286.242 173.229 276.384 177.196 269.115 184.256C261.847 191.316 257.764 200.892 257.764 210.877C257.764 220.862 261.847 230.437 269.115 237.498C276.384 244.558 286.242 248.524 296.521 248.524V248.524Z" fill="url(#paint12_radial_3_103)"/>
</g>
<g filter="url(#filter4_f_3_103)">
<path fill-rule="evenodd" clip-rule="evenodd" d="M144.961 230.082C146.802 228.296 149.298 227.293 151.901 227.293C154.503 227.293 156.999 228.296 158.84 230.082C165.554 236.607 173.525 241.783 182.298 245.314C191.071 248.845 200.475 250.663 209.971 250.663C219.468 250.663 228.872 248.845 237.645 245.314C246.418 241.783 254.389 236.607 261.102 230.082C262.009 229.172 263.093 228.445 264.291 227.946C265.49 227.447 266.778 227.184 268.082 227.174C269.386 227.163 270.679 227.405 271.886 227.885C273.092 228.366 274.189 229.074 275.11 229.97C276.032 230.867 276.76 231.932 277.254 233.104C277.747 234.277 277.995 235.533 277.983 236.8C277.971 238.066 277.699 239.318 277.184 240.481C276.669 241.645 275.92 242.697 274.982 243.577C266.446 251.872 256.311 258.452 245.156 262.942C234.002 267.431 222.046 269.742 209.971 269.742C197.897 269.742 185.941 267.431 174.786 262.942C163.632 258.452 153.497 251.872 144.961 243.577C143.122 241.788 142.089 239.364 142.089 236.836C142.089 234.308 143.122 231.884 144.961 230.095V230.082Z" fill="#D6961E"/>
</g>
<g filter="url(#filter5_i_3_103)">
<path fill-rule="evenodd" clip-rule="evenodd" d="M148.3 225.376C150.141 223.59 152.637 222.587 155.239 222.587C157.842 222.587 160.338 223.59 162.179 225.376C168.892 231.902 176.862 237.08 185.636 240.612C194.409 244.144 203.813 245.962 213.31 245.962C222.807 245.962 232.211 244.144 240.985 240.612C249.758 237.08 257.729 231.902 264.441 225.376C266.303 223.691 268.765 222.774 271.309 222.818C273.853 222.861 276.281 223.862 278.08 225.61C279.879 227.358 280.91 229.716 280.955 232.187C281 234.658 280.055 237.05 278.321 238.858C269.784 247.152 259.649 253.731 248.494 258.219C237.34 262.708 225.384 265.018 213.31 265.018C201.236 265.018 189.281 262.708 178.126 258.219C166.972 253.731 156.837 247.152 148.3 238.858C146.461 237.07 145.428 234.645 145.428 232.117C145.428 229.589 146.461 227.165 148.3 225.376V225.376Z" fill="url(#paint13_linear_3_103)"/>
<path fill-rule="evenodd" clip-rule="evenodd" d="M148.3 225.376C150.141 223.59 152.637 222.587 155.239 222.587C157.842 222.587 160.338 223.59 162.179 225.376C168.892 231.902 176.862 237.08 185.636 240.612C194.409 244.144 203.813 245.962 213.31 245.962C222.807 245.962 232.211 244.144 240.985 240.612C249.758 237.08 257.729 231.902 264.441 225.376C266.303 223.691 268.765 222.774 271.309 222.818C273.853 222.861 276.281 223.862 278.08 225.61C279.879 227.358 280.91 229.716 280.955 232.187C281 234.658 280.055 237.05 278.321 238.858C269.784 247.152 259.649 253.731 248.494 258.219C237.34 262.708 225.384 265.018 213.31 265.018C201.236 265.018 189.281 262.708 178.126 258.219C166.972 253.731 156.837 247.152 148.3 238.858C146.461 237.07 145.428 234.645 145.428 232.117C145.428 229.589 146.461 227.165 148.3 225.376V225.376Z" fill="url(#paint14_linear_3_103)"/>
</g>
<g filter="url(#filter6_i_3_103)">
<path fill-rule="evenodd" clip-rule="evenodd" d="M145.157 116.758C136.546 116.762 128.289 120.086 122.2 126C116.111 131.915 112.688 139.936 112.685 148.301C112.685 149.987 111.995 151.605 110.767 152.797C109.54 153.99 107.874 154.66 106.138 154.66C104.402 154.66 102.736 153.99 101.509 152.797C100.281 151.605 99.5911 149.987 99.5911 148.301C99.5945 136.563 104.396 125.307 112.941 117.007C121.486 108.707 133.073 104.043 145.157 104.039C146.894 104.039 148.559 104.709 149.787 105.902C151.014 107.095 151.704 108.712 151.704 110.399C151.704 112.085 151.014 113.703 149.787 114.896C148.559 116.088 146.894 116.758 145.157 116.758Z" fill="#43304A"/>
<path fill-rule="evenodd" clip-rule="evenodd" d="M145.157 116.758C136.546 116.762 128.289 120.086 122.2 126C116.111 131.915 112.688 139.936 112.685 148.301C112.685 149.987 111.995 151.605 110.767 152.797C109.54 153.99 107.874 154.66 106.138 154.66C104.402 154.66 102.736 153.99 101.509 152.797C100.281 151.605 99.5911 149.987 99.5911 148.301C99.5945 136.563 104.396 125.307 112.941 117.007C121.486 108.707 133.073 104.043 145.157 104.039C146.894 104.039 148.559 104.709 149.787 105.902C151.014 107.095 151.704 108.712 151.704 110.399C151.704 112.085 151.014 113.703 149.787 114.896C148.559 116.088 146.894 116.758 145.157 116.758Z" fill="url(#paint15_radial_3_103)"/>
</g>
<g filter="url(#filter7_f_3_103)">
<path fill-rule="evenodd" clip-rule="evenodd" d="M272.913 113.4C272.913 110.004 275.741 107.257 279.237 107.257C303.448 107.257 323.232 126.335 323.232 149.992C323.271 150.822 323.137 151.65 322.837 152.428C322.537 153.205 322.078 153.915 321.487 154.516C320.897 155.116 320.187 155.594 319.401 155.92C318.615 156.247 317.769 156.415 316.915 156.415C316.06 156.415 315.214 156.247 314.428 155.92C313.642 155.594 312.933 155.116 312.342 154.516C311.752 153.915 311.292 153.205 310.993 152.428C310.693 151.65 310.558 150.822 310.597 149.992C310.586 141.919 307.278 134.179 301.399 128.473C295.519 122.767 287.549 119.56 279.237 119.556C277.56 119.556 275.951 118.909 274.765 117.757C273.579 116.605 272.913 115.042 272.913 113.413V113.4Z" fill="#C28D03"/>
</g>
<g filter="url(#filter8_i_3_103)">
<path fill-rule="evenodd" clip-rule="evenodd" d="M274.524 110.399C274.524 108.712 275.213 107.095 276.441 105.902C277.669 104.709 279.334 104.039 281.07 104.039C293.154 104.043 304.742 108.707 313.287 117.007C321.831 125.307 326.633 136.563 326.637 148.301C326.637 149.987 325.947 151.605 324.719 152.797C323.491 153.99 321.826 154.66 320.09 154.66C318.353 154.66 316.688 153.99 315.461 152.797C314.233 151.605 313.543 149.987 313.543 148.301C313.539 139.936 310.117 131.915 304.028 126C297.939 120.086 289.682 116.762 281.07 116.758C279.334 116.758 277.669 116.088 276.441 114.896C275.213 113.703 274.524 112.085 274.524 110.399Z" fill="#43304A"/>
</g>
<g filter="url(#filter9_f_3_103)">
<path fill-rule="evenodd" clip-rule="evenodd" d="M155.462 163.309C148.391 163.309 142.408 167.481 140.011 173.42C139.578 174.493 138.931 175.473 138.108 176.303C137.285 177.134 136.302 177.799 135.214 178.26C134.127 178.721 132.956 178.97 131.77 178.991C130.583 179.013 129.404 178.808 128.299 178.387C127.194 177.966 126.186 177.338 125.331 176.538C124.476 175.739 123.792 174.783 123.317 173.727C122.842 172.671 122.586 171.534 122.564 170.381C122.541 169.229 122.753 168.083 123.186 167.01C125.739 160.724 130.186 155.333 135.945 151.541C141.703 147.749 148.505 145.733 155.462 145.757C170.782 145.757 183.823 155.423 188.38 168.867C188.751 169.962 188.897 171.117 188.809 172.266C188.721 173.416 188.4 174.537 187.866 175.567C187.331 176.596 186.594 177.513 185.694 178.265C184.795 179.018 183.752 179.59 182.625 179.951C181.498 180.312 180.309 180.454 179.125 180.368C177.942 180.282 176.787 179.971 175.728 179.452C174.668 178.933 173.724 178.216 172.95 177.343C172.175 176.469 171.585 175.456 171.214 174.361C170.12 171.142 168.009 168.34 165.181 166.353C162.353 164.366 158.952 163.297 155.462 163.296V163.309Z" fill="#C68D0F"/>
</g>
<path fill-rule="evenodd" clip-rule="evenodd" d="M157.204 161.019C149.518 161.019 143.036 165.56 140.43 172.008C139.479 174.365 137.603 176.257 135.215 177.27C132.827 178.282 130.122 178.332 127.697 177.407C125.271 176.483 123.323 174.661 122.28 172.341C121.238 170.022 121.187 167.395 122.139 165.039C124.913 158.209 129.743 152.351 135.999 148.23C142.255 144.109 149.645 141.918 157.204 141.941C173.872 141.941 188.026 152.447 192.989 167.061C193.393 168.251 193.552 169.507 193.456 170.756C193.361 172.006 193.013 173.225 192.432 174.344C191.852 175.463 191.05 176.46 190.072 177.278C189.095 178.096 187.962 178.719 186.737 179.112C185.511 179.504 184.219 179.659 182.932 179.566C181.646 179.473 180.391 179.135 179.238 178.571C178.086 178.007 177.06 177.228 176.218 176.279C175.376 175.33 174.734 174.229 174.33 173.039C173.142 169.539 170.846 166.493 167.771 164.334C164.696 162.176 160.998 161.016 157.204 161.019Z" fill="url(#paint16_linear_3_103)"/>
<g filter="url(#filter10_f_3_103)">
<path fill-rule="evenodd" clip-rule="evenodd" d="M268.841 163.309C261.77 163.309 255.799 167.481 253.39 173.42C252.466 175.518 250.738 177.184 248.571 178.065C246.404 178.946 243.969 178.972 241.782 178.138C239.596 177.304 237.829 175.676 236.858 173.599C235.886 171.521 235.786 169.158 236.578 167.01C239.131 160.726 243.575 155.336 249.331 151.544C255.087 147.753 261.886 145.736 268.841 145.757C284.161 145.757 297.202 155.423 301.759 168.867C302.428 171.055 302.193 173.41 301.105 175.433C300.016 177.455 298.159 178.986 295.928 179.701C293.696 180.416 291.266 180.258 289.152 179.261C287.038 178.264 285.408 176.507 284.606 174.361C283.511 171.14 281.398 168.336 278.568 166.349C275.737 164.362 272.333 163.294 268.841 163.296V163.309Z" fill="#C68D0F"/>
</g>
<g filter="url(#filter11_i_3_103)">
<path fill-rule="evenodd" clip-rule="evenodd" d="M270.072 161.019C266.46 160.997 262.925 162.034 259.93 163.994C256.935 165.955 254.619 168.748 253.286 172.008C252.299 174.314 250.421 176.153 248.054 177.129C245.688 178.104 243.022 178.14 240.629 177.227C238.236 176.315 236.306 174.527 235.255 172.248C234.204 169.969 234.115 167.381 235.007 165.039C237.781 158.209 242.611 152.351 248.867 148.23C255.123 144.109 262.513 141.918 270.072 141.941C286.74 141.941 300.894 152.447 305.857 167.061C306.673 169.464 306.473 172.084 305.3 174.344C304.128 176.604 302.079 178.319 299.605 179.112C297.13 179.905 294.433 179.71 292.107 178.571C289.78 177.432 288.014 175.442 287.198 173.039C286.01 169.539 283.715 166.493 280.639 164.334C277.564 162.176 273.866 161.016 270.072 161.019Z" fill="#422E51"/>
</g>
<g filter="url(#filter12_f_3_103)">
<path d="M155.698 232.41C174.553 249.567 223.916 273.58 270.478 232.41" stroke="url(#paint17_linear_3_103)" stroke-width="0.6" stroke-linecap="round"/>
<path d="M155.698 232.41C174.553 249.567 223.916 273.58 270.478 232.41" stroke="url(#paint18_linear_3_103)" stroke-width="0.6" stroke-linecap="round"/>
</g>
<g filter="url(#filter13_f_3_103)">
<path d="M282.066 108.771C293.667 108.898 318.492 117.559 320.954 147.932" stroke="url(#paint19_linear_3_103)" stroke-width="0.4" stroke-linecap="round"/>
<path d="M282.066 108.771C293.667 108.898 318.492 117.559 320.954 147.932" stroke="url(#paint20_linear_3_103)" stroke-width="0.4" stroke-linecap="round"/>
</g>
<g filter="url(#filter14_f_3_103)">
<path d="M106.74 147.334C107.212 138.52 112.502 121.655 129.039 114.342" stroke="url(#paint21_linear_3_103)" stroke-width="0.4" stroke-linecap="round"/>
</g>
<g filter="url(#filter15_f_3_103)">
<path d="M185.434 171.512C183.993 163.016 174.828 146.762 149.923 149.776" stroke="url(#paint22_linear_3_103)" stroke-width="0.5" stroke-linecap="round"/>
</g>
<g opacity="0.5" filter="url(#filter16_f_3_103)">
<path d="M245.534 166.781C247.943 161.248 256.271 150.323 270.334 150.883C284.383 151.442 295.526 160.854 298.485 166.781" stroke="url(#paint23_linear_3_103)" stroke-width="0.5" stroke-linecap="round"/>
</g>
<defs>
<filter id="filter0_i_3_103" x="32.7577" y="24.1991" width="354.682" height="358.356" filterUnits="userSpaceOnUse" color-interpolation-filters="sRGB">
<feFlood flood-opacity="0" result="BackgroundImageFix"/>
<feBlend mode="normal" in="SourceGraphic" in2="BackgroundImageFix" result="shape"/>
<feColorMatrix in="SourceAlpha" type="matrix" values="0 0 0 0 0 0 0 0 0 0 0 0 0 0 0 0 0 0 127 0" result="hardAlpha"/>
<feOffset dx="0.25" dy="-0.25"/>
<feGaussianBlur stdDeviation="0.25"/>
<feComposite in2="hardAlpha" operator="arithmetic" k2="-1" k3="1"/>
<feColorMatrix type="matrix" values="0 0 0 0 0.85098 0 0 0 0 0.447059 0 0 0 0 0.196078 0 0 0 1 0"/>
<feBlend mode="normal" in2="shape" result="effect1_innerShadow_3_103"/>
</filter>
<filter id="filter1_i_3_103" x="69.0052" y="66.5318" width="281.632" height="273.575" filterUnits="userSpaceOnUse" color-interpolation-filters="sRGB">
<feFlood flood-opacity="0" result="BackgroundImageFix"/>
<feBlend mode="normal" in="SourceGraphic" in2="BackgroundImageFix" result="shape"/>
<feColorMatrix in="SourceAlpha" type="matrix" values="0 0 0 0 0 0 0 0 0 0 0 0 0 0 0 0 0 0 127 0" result="hardAlpha"/>
<feOffset dx="-0.3" dy="0.3"/>
<feGaussianBlur stdDeviation="0.15"/>
<feComposite in2="hardAlpha" operator="arithmetic" k2="-1" k3="1"/>
<feColorMatrix type="matrix" values="0 0 0 0 0.921569 0 0 0 0 0.47451 0 0 0 0 0.133333 0 0 0 1 0"/>
<feBlend mode="normal" in2="shape" result="effect1_innerShadow_3_103"/>
</filter>
<filter id="filter2_f_3_103" x="84.1642" y="172.729" width="78.515" height="76.295" filterUnits="userSpaceOnUse" color-interpolation-filters="sRGB">
<feFlood flood-opacity="0" result="BackgroundImageFix"/>
<feBlend mode="normal" in="SourceGraphic" in2="BackgroundImageFix" result="shape"/>
<feGaussianBlur stdDeviation="0.25" result="effect1_foregroundBlur_3_103"/>
</filter>
<filter id="filter3_f_3_103" x="257.264" y="172.729" width="78.515" height="76.295" filterUnits="userSpaceOnUse" color-interpolation-filters="sRGB">
<feFlood flood-opacity="0" result="BackgroundImageFix"/>
<feBlend mode="normal" in="SourceGraphic" in2="BackgroundImageFix" result="shape"/>
<feGaussianBlur stdDeviation="0.25" result="effect1_foregroundBlur_3_103"/>
</filter>
<filter id="filter4_f_3_103" x="141.589" y="226.673" width="136.894" height="43.5688" filterUnits="userSpaceOnUse" color-interpolation-filters="sRGB">
<feFlood flood-opacity="0" result="BackgroundImageFix"/>
<feBlend mode="normal" in="SourceGraphic" in2="BackgroundImageFix" result="shape"/>
<feGaussianBlur stdDeviation="0.25" result="effect1_foregroundBlur_3_103"/>
</filter>
<filter id="filter5_i_3_103" x="145.428" y="222.337" width="135.779" height="42.6816" filterUnits="userSpaceOnUse" color-interpolation-filters="sRGB">
<feFlood flood-opacity="0" result="BackgroundImageFix"/>
<feBlend mode="normal" in="SourceGraphic" in2="BackgroundImageFix" result="shape"/>
<feColorMatrix in="SourceAlpha" type="matrix" values="0 0 0 0 0 0 0 0 0 0 0 0 0 0 0 0 0 0 127 0" result="hardAlpha"/>
<feOffset dx="0.25" dy="-0.25"/>
<feGaussianBlur stdDeviation="0.5"/>
<feComposite in2="hardAlpha" operator="arithmetic" k2="-1" k3="1"/>
<feColorMatrix type="matrix" values="0 0 0 0 0.203922 0 0 0 0 0.168627 0 0 0 0 0.180392 0 0 0 1 0"/>
<feBlend mode="normal" in2="shape" result="effect1_innerShadow_3_103"/>
</filter>
<filter id="filter6_i_3_103" x="99.5911" y="103.789" width="52.3631" height="50.8706" filterUnits="userSpaceOnUse" color-interpolation-filters="sRGB">
<feFlood flood-opacity="0" result="BackgroundImageFix"/>
<feBlend mode="normal" in="SourceGraphic" in2="BackgroundImageFix" result="shape"/>
<feColorMatrix in="SourceAlpha" type="matrix" values="0 0 0 0 0 0 0 0 0 0 0 0 0 0 0 0 0 0 127 0" result="hardAlpha"/>
<feOffset dx="0.25" dy="-0.25"/>
<feGaussianBlur stdDeviation="0.25"/>
<feComposite in2="hardAlpha" operator="arithmetic" k2="-1" k3="1"/>
<feColorMatrix type="matrix" values="0 0 0 0 0.239216 0 0 0 0 0.156863 0 0 0 0 0.172549 0 0 0 1 0"/>
<feBlend mode="normal" in2="shape" result="effect1_innerShadow_3_103"/>
</filter>
<filter id="filter7_f_3_103" x="272.413" y="106.757" width="51.3258" height="50.1576" filterUnits="userSpaceOnUse" color-interpolation-filters="sRGB">
<feFlood flood-opacity="0" result="BackgroundImageFix"/>
<feBlend mode="normal" in="SourceGraphic" in2="BackgroundImageFix" result="shape"/>
<feGaussianBlur stdDeviation="0.25" result="effect1_foregroundBlur_3_103"/>
</filter>
<filter id="filter8_i_3_103" x="274.524" y="103.889" width="52.2631" height="50.7706" filterUnits="userSpaceOnUse" color-interpolation-filters="sRGB">
<feFlood flood-opacity="0" result="BackgroundImageFix"/>
<feBlend mode="normal" in="SourceGraphic" in2="BackgroundImageFix" result="shape"/>
<feColorMatrix in="SourceAlpha" type="matrix" values="0 0 0 0 0 0 0 0 0 0 0 0 0 0 0 0 0 0 127 0" result="hardAlpha"/>
<feOffset dx="0.15" dy="-0.15"/>
<feGaussianBlur stdDeviation="0.25"/>
<feComposite in2="hardAlpha" operator="arithmetic" k2="-1" k3="1"/>
<feColorMatrix type="matrix" values="0 0 0 0 0.270588 0 0 0 0 0.196078 0 0 0 0 0.192157 0 0 0 1 0"/>
<feBlend mode="normal" in2="shape" result="effect1_innerShadow_3_103"/>
</filter>
<filter id="filter9_f_3_103" x="122.162" y="145.357" width="67.0717" height="35.4355" filterUnits="userSpaceOnUse" color-interpolation-filters="sRGB">
<feFlood flood-opacity="0" result="BackgroundImageFix"/>
<feBlend mode="normal" in="SourceGraphic" in2="BackgroundImageFix" result="shape"/>
<feGaussianBlur stdDeviation="0.2" result="effect1_foregroundBlur_3_103"/>
</filter>
<filter id="filter10_f_3_103" x="235.649" y="145.357" width="66.8841" height="35.1861" filterUnits="userSpaceOnUse" color-interpolation-filters="sRGB">
<feFlood flood-opacity="0" result="BackgroundImageFix"/>
<feBlend mode="normal" in="SourceGraphic" in2="BackgroundImageFix" result="shape"/>
<feGaussianBlur stdDeviation="0.2" result="effect1_foregroundBlur_3_103"/>
</filter>
<filter id="filter11_i_3_103" x="234.397" y="141.791" width="72.3545" height="37.8009" filterUnits="userSpaceOnUse" color-interpolation-filters="sRGB">
<feFlood flood-opacity="0" result="BackgroundImageFix"/>
<feBlend mode="normal" in="SourceGraphic" in2="BackgroundImageFix" result="shape"/>
<feColorMatrix in="SourceAlpha" type="matrix" values="0 0 0 0 0 0 0 0 0 0 0 0 0 0 0 0 0 0 127 0" result="hardAlpha"/>
<feOffset dx="0.4" dy="-0.15"/>
<feGaussianBlur stdDeviation="0.25"/>
<feComposite in2="hardAlpha" operator="arithmetic" k2="-1" k3="1"/>
<feColorMatrix type="matrix" values="0 0 0 0 0.298039 0 0 0 0 0.196078 0 0 0 0 0.235294 0 0 0 1 0"/>
<feBlend mode="normal" in2="shape" result="effect1_innerShadow_3_103"/>
</filter>
<filter id="filter12_f_3_103" x="154.798" y="231.51" width="116.58" height="24.5333" filterUnits="userSpaceOnUse" color-interpolation-filters="sRGB">
<feFlood flood-opacity="0" result="BackgroundImageFix"/>
<feBlend mode="normal" in="SourceGraphic" in2="BackgroundImageFix" result="shape"/>
<feGaussianBlur stdDeviation="0.3" result="effect1_foregroundBlur_3_103"/>
</filter>
<filter id="filter13_f_3_103" x="281.466" y="108.171" width="40.0884" height="40.361" filterUnits="userSpaceOnUse" color-interpolation-filters="sRGB">
<feFlood flood-opacity="0" result="BackgroundImageFix"/>
<feBlend mode="normal" in="SourceGraphic" in2="BackgroundImageFix" result="shape"/>
<feGaussianBlur stdDeviation="0.2" result="effect1_foregroundBlur_3_103"/>
</filter>
<filter id="filter14_f_3_103" x="106.14" y="113.742" width="23.4987" height="34.1925" filterUnits="userSpaceOnUse" color-interpolation-filters="sRGB">
<feFlood flood-opacity="0" result="BackgroundImageFix"/>
<feBlend mode="normal" in="SourceGraphic" in2="BackgroundImageFix" result="shape"/>
<feGaussianBlur stdDeviation="0.2" result="effect1_foregroundBlur_3_103"/>
</filter>
<filter id="filter15_f_3_103" x="149.173" y="148.658" width="37.0103" height="23.6041" filterUnits="userSpaceOnUse" color-interpolation-filters="sRGB">
<feFlood flood-opacity="0" result="BackgroundImageFix"/>
<feBlend mode="normal" in="SourceGraphic" in2="BackgroundImageFix" result="shape"/>
<feGaussianBlur stdDeviation="0.25" result="effect1_foregroundBlur_3_103"/>
</filter>
<filter id="filter16_f_3_103" x="244.784" y="150.112" width="54.4512" height="17.4192" filterUnits="userSpaceOnUse" color-interpolation-filters="sRGB">
<feFlood flood-opacity="0" result="BackgroundImageFix"/>
<feBlend mode="normal" in="SourceGraphic" in2="BackgroundImageFix" result="shape"/>
<feGaussianBlur stdDeviation="0.25" result="effect1_foregroundBlur_3_103"/>
</filter>
<linearGradient id="paint0_linear_3_103" x1="319.226" y1="84.5797" x2="125.42" y2="339.146" gradientUnits="userSpaceOnUse">
<stop stop-color="#FC8B23"/>
<stop offset="1" stop-color="#E67639"/>
</linearGradient>
<radialGradient id="paint1_radial_3_103" cx="0" cy="0" r="1" gradientUnits="userSpaceOnUse" gradientTransform="translate(243.823 40.9647) rotate(138.981) scale(48.851 42.9464)">
<stop offset="0.3" stop-color="#FFA13A"/>
<stop offset="1" stop-color="#FFA13A" stop-opacity="0"/>
</radialGradient>
<radialGradient id="paint2_radial_3_103" cx="0" cy="0" r="1" gradientUnits="userSpaceOnUse" gradientTransform="translate(115.094 25.7936) rotate(67.2222) scale(76.7288 69.1048)">
<stop offset="0.3" stop-color="#FF942A"/>
<stop offset="1" stop-color="#FF942A" stop-opacity="0"/>
</radialGradient>
<radialGradient id="paint3_radial_3_103" cx="0" cy="0" r="1" gradientUnits="userSpaceOnUse" gradientTransform="translate(326.323 97.0629) rotate(-165.162) scale(31.2999 42.2628)">
<stop offset="0.3" stop-color="#FFA13D"/>
<stop offset="1" stop-color="#FFA13D" stop-opacity="0"/>
</radialGradient>
<radialGradient id="paint4_radial_3_103" cx="0" cy="0" r="1" gradientUnits="userSpaceOnUse" gradientTransform="translate(389.591 141.433) rotate(154.842) scale(55.3067 40.1073)">
<stop offset="0.3" stop-color="#FFA13D"/>
<stop offset="1" stop-color="#FFA13D" stop-opacity="0"/>
</radialGradient>
<radialGradient id="paint5_radial_3_103" cx="0" cy="0" r="1" gradientUnits="userSpaceOnUse" gradientTransform="translate(401.69 232.791) rotate(-173.567) scale(62.003 33.9658)">
<stop offset="0.3" stop-color="#FFA13D"/>
<stop offset="1" stop-color="#FFA13D" stop-opacity="0"/>
</radialGradient>
<radialGradient id="paint6_radial_3_103" cx="0" cy="0" r="1" gradientUnits="userSpaceOnUse" gradientTransform="translate(346.13 302.803) rotate(-43.1327) scale(55.4922 53.3816)">
<stop stop-color="#E0762A"/>
<stop offset="1" stop-color="#E0762A" stop-opacity="0"/>
</radialGradient>
<radialGradient id="paint7_radial_3_103" cx="0" cy="0" r="1" gradientUnits="userSpaceOnUse" gradientTransform="translate(85.3712 289.975) rotate(-128.556) scale(42.3658 41.0961)">
<stop stop-color="#E0762A"/>
<stop offset="1" stop-color="#E0762A" stop-opacity="0"/>
</radialGradient>
<radialGradient id="paint8_radial_3_103" cx="0" cy="0" r="1" gradientUnits="userSpaceOnUse" gradientTransform="translate(26.5148 148.364) rotate(24.6407) scale(43.5762 51.6918)">
<stop stop-color="#F0851D"/>
<stop offset="1" stop-color="#F0851D" stop-opacity="0"/>
</radialGradient>
<radialGradient id="paint9_radial_3_103" cx="0" cy="0" r="1" gradientUnits="userSpaceOnUse" gradientTransform="translate(287.998 363.491) rotate(-143.288) scale(50.5315 47.2969)">
<stop offset="0.337" stop-color="#E3745B"/>
<stop offset="1" stop-color="#E3745B" stop-opacity="0"/>
</radialGradient>
<radialGradient id="paint10_radial_3_103" cx="0" cy="0" r="1" gradientUnits="userSpaceOnUse" gradientTransform="translate(289.812 124.014) rotate(131.085) scale(225.243 230.532)">
<stop offset="0.172" stop-color="#FFD13D"/>
<stop offset="1" stop-color="#DCA21C"/>
</radialGradient>
<radialGradient id="paint11_radial_3_103" cx="0" cy="0" r="1" gradientUnits="userSpaceOnUse" gradientTransform="translate(123.356 210.813) scale(42.0419 40.8379)">
<stop offset="0.25" stop-color="#ED501F"/>
<stop offset="0.895" stop-color="#F18A42" stop-opacity="0"/>
</radialGradient>
<radialGradient id="paint12_radial_3_103" cx="0" cy="0" r="1" gradientUnits="userSpaceOnUse" gradientTransform="translate(296.469 210.813) scale(42.0419 40.8379)">
<stop offset="0.13" stop-color="#FB6738"/>
<stop offset="0.895" stop-color="#F18A42" stop-opacity="0"/>
</radialGradient>
<linearGradient id="paint13_linear_3_103" x1="145.432" y1="243.742" x2="281.188" y2="243.742" gradientUnits="userSpaceOnUse">
<stop stop-color="#31243C"/>
<stop offset="1" stop-color="#3F2950"/>
</linearGradient>
<linearGradient id="paint14_linear_3_103" x1="281.201" y1="227.818" x2="273.48" y2="235.19" gradientUnits="userSpaceOnUse">
<stop stop-color="#665C6D"/>
<stop offset="1" stop-color="#665C6D" stop-opacity="0"/>
</linearGradient>
<radialGradient id="paint15_radial_3_103" cx="0" cy="0" r="1" gradientUnits="userSpaceOnUse" gradientTransform="translate(151.697 108.772) rotate(128.35) scale(14.4443 14.547)">
<stop stop-color="#59525C"/>
<stop offset="1" stop-color="#59525C" stop-opacity="0"/>
</radialGradient>
<linearGradient id="paint16_linear_3_103" x1="121.405" y1="160.752" x2="193.486" y2="160.752" gradientUnits="userSpaceOnUse">
<stop stop-color="#2E2931"/>
<stop offset="1" stop-color="#362A3F"/>
</linearGradient>
<linearGradient id="paint17_linear_3_103" x1="152.49" y1="225.402" x2="212.359" y2="256.552" gradientUnits="userSpaceOnUse">
<stop stop-color="#4E4753"/>
<stop offset="1" stop-color="#4E4753" stop-opacity="0"/>
</linearGradient>
<linearGradient id="paint18_linear_3_103" x1="278.504" y1="223.456" x2="204.724" y2="261.014" gradientUnits="userSpaceOnUse">
<stop offset="0.09" stop-color="#5E5468"/>
<stop offset="1" stop-color="#5E5468" stop-opacity="0"/>
</linearGradient>
<linearGradient id="paint19_linear_3_103" x1="277.574" y1="107.181" x2="306.533" y2="126.234" gradientUnits="userSpaceOnUse">
<stop stop-color="#60556A"/>
<stop offset="1" stop-color="#60556A" stop-opacity="0"/>
</linearGradient>
<linearGradient id="paint20_linear_3_103" x1="323.193" y1="142.755" x2="298.89" y2="100.798" gradientUnits="userSpaceOnUse">
<stop stop-color="#5D4F69"/>
<stop offset="1" stop-color="#5D4F69" stop-opacity="0"/>
</linearGradient>
<linearGradient id="paint21_linear_3_103" x1="109.804" y1="151.709" x2="111.04" y2="113.792" gradientUnits="userSpaceOnUse">
<stop stop-color="#524D53"/>
<stop offset="1" stop-color="#524D53" stop-opacity="0"/>
</linearGradient>
<linearGradient id="paint22_linear_3_103" x1="176.203" y1="171.512" x2="144.729" y2="166.532" gradientUnits="userSpaceOnUse">
<stop stop-color="#524D53"/>
<stop offset="1" stop-color="#5C5463" stop-opacity="0"/>
</linearGradient>
<linearGradient id="paint23_linear_3_103" x1="283.467" y1="169.35" x2="237.066" y2="162.47" gradientUnits="userSpaceOnUse">
<stop stop-color="#61556C"/>
<stop offset="1" stop-color="#554A5F"/>
</linearGradient>
</defs>
</svg>
