<svg width="358" height="337" viewBox="0 0 358 337" fill="none" xmlns="http://www.w3.org/2000/svg">
<g filter="url(#filter0_i_3_176)">
<path d="M177.523 316.98C264.019 316.98 334.137 250.975 334.137 169.553C334.137 88.1315 264.019 22.1262 177.523 22.1262C91.0278 22.1262 20.9094 88.1315 20.9094 169.553C20.9094 250.975 91.0278 316.98 177.523 316.98Z" fill="url(#paint0_radial_3_176)"/>
<path d="M177.523 316.98C264.019 316.98 334.137 250.975 334.137 169.553C334.137 88.1315 264.019 22.1262 177.523 22.1262C91.0278 22.1262 20.9094 88.1315 20.9094 169.553C20.9094 250.975 91.0278 316.98 177.523 316.98Z" fill="url(#paint1_radial_3_176)"/>
<path d="M177.523 316.98C264.019 316.98 334.137 250.975 334.137 169.553C334.137 88.1315 264.019 22.1262 177.523 22.1262C91.0278 22.1262 20.9094 88.1315 20.9094 169.553C20.9094 250.975 91.0278 316.98 177.523 316.98Z" fill="url(#paint2_radial_3_176)"/>
</g>
<path opacity="0.44" d="M102.187 200.662C110.969 200.662 119.392 197.378 125.602 191.532C131.813 185.686 135.302 177.757 135.302 169.49C135.302 161.222 131.813 153.294 125.602 147.448C119.392 141.602 110.969 138.317 102.187 138.317C93.404 138.317 84.9811 141.602 78.7708 147.448C72.5605 153.294 69.0716 161.222 69.0716 169.49C69.0716 177.757 72.5605 185.686 78.7708 191.532C84.9811 197.378 93.404 200.662 102.187 200.662V200.662Z" fill="url(#paint3_radial_3_176)"/>
<path opacity="0.44" d="M250.085 200.662C258.868 200.662 267.291 197.378 273.501 191.532C279.711 185.686 283.2 177.757 283.2 169.49C283.2 161.222 279.711 153.294 273.501 147.448C267.291 141.602 258.868 138.317 250.085 138.317C241.303 138.317 232.88 141.602 226.67 147.448C220.459 153.294 216.97 161.222 216.97 169.49C216.97 177.757 220.459 185.686 226.67 191.532C232.88 197.378 241.303 200.662 250.085 200.662V200.662Z" fill="url(#paint4_radial_3_176)"/>
<g filter="url(#filter1_f_3_176)">
<path d="M171.851 85.6612C179.26 85.6612 186.366 82.8907 191.604 77.9591C196.843 73.0276 199.786 66.3389 199.786 59.3647C199.786 52.3904 196.843 45.7018 191.604 40.7702C186.366 35.8386 179.26 33.0681 171.851 33.0681C164.442 33.0681 157.337 35.8386 152.098 40.7702C146.859 45.7018 143.916 52.3904 143.916 59.3647C143.916 66.3389 146.859 73.0276 152.098 77.9591C157.337 82.8907 164.442 85.6612 171.851 85.6612V85.6612Z" stroke="url(#paint5_linear_3_176)" stroke-width="0.25"/>
</g>
<path d="M171.851 85.6612C179.26 85.6612 186.366 82.8907 191.604 77.9591C196.843 73.0276 199.786 66.3389 199.786 59.3647C199.786 52.3904 196.843 45.7018 191.604 40.7702C186.366 35.8386 179.26 33.0681 171.851 33.0681C164.442 33.0681 157.337 35.8386 152.098 40.7702C146.859 45.7018 143.916 52.3904 143.916 59.3647C143.916 66.3389 146.859 73.0276 152.098 77.9591C157.337 82.8907 164.442 85.6612 171.851 85.6612V85.6612Z" fill="url(#paint6_linear_3_176)"/>
<path d="M171.851 85.6612C179.26 85.6612 186.366 82.8907 191.604 77.9591C196.843 73.0276 199.786 66.3389 199.786 59.3647C199.786 52.3904 196.843 45.7018 191.604 40.7702C186.366 35.8386 179.26 33.0681 171.851 33.0681C164.442 33.0681 157.337 35.8386 152.098 40.7702C146.859 45.7018 143.916 52.3904 143.916 59.3647C143.916 66.3389 146.859 73.0276 152.098 77.9591C157.337 82.8907 164.442 85.6612 171.851 85.6612V85.6612Z" fill="url(#paint7_radial_3_176)"/>
<path d="M171.851 85.6612C179.26 85.6612 186.366 82.8907 191.604 77.9591C196.843 73.0276 199.786 66.3389 199.786 59.3647C199.786 52.3904 196.843 45.7018 191.604 40.7702C186.366 35.8386 179.26 33.0681 171.851 33.0681C164.442 33.0681 157.337 35.8386 152.098 40.7702C146.859 45.7018 143.916 52.3904 143.916 59.3647C143.916 66.3389 146.859 73.0276 152.098 77.9591C157.337 82.8907 164.442 85.6612 171.851 85.6612V85.6612Z" fill="url(#paint8_radial_3_176)"/>
<g filter="url(#filter2_f_3_176)">
<path d="M23.1581 160.675C28.4789 159.374 34.024 159.098 39.4611 159.862C44.8982 160.626 50.1154 162.416 54.8001 165.124C59.4849 167.832 63.5408 171.402 66.7248 175.62C69.9088 179.839 72.1554 184.619 73.33 189.674C74.5046 194.73 74.583 199.956 73.5605 205.041C72.5381 210.126 70.4358 214.964 67.3796 219.265C64.3234 223.567 60.3762 227.243 55.7745 230.074C51.1729 232.906 46.0114 234.833 40.5995 235.742" stroke="url(#paint9_linear_3_176)" stroke-width="0.2"/>
</g>
<path d="M21.1444 161.233C26.5936 159.595 32.3476 159.053 38.0337 159.641C43.7198 160.229 49.2113 161.935 54.1524 164.648C59.0936 167.362 63.3742 171.022 66.717 175.391C70.0599 179.761 72.3904 184.743 73.5576 190.015C74.7249 195.286 74.7029 200.73 73.493 205.993C72.2831 211.256 69.9123 216.221 66.5342 220.566C63.1561 224.912 58.846 228.541 53.8831 231.219C48.9201 233.897 43.415 235.563 37.7243 236.111C25.2707 212.968 19.5538 187.132 21.1556 161.233H21.1444Z" fill="url(#paint10_radial_3_176)"/>
<path d="M21.1444 161.233C26.5936 159.595 32.3476 159.053 38.0337 159.641C43.7198 160.229 49.2113 161.935 54.1524 164.648C59.0936 167.362 63.3742 171.022 66.717 175.391C70.0599 179.761 72.3904 184.743 73.5576 190.015C74.7249 195.286 74.7029 200.73 73.493 205.993C72.2831 211.256 69.9123 216.221 66.5342 220.566C63.1561 224.912 58.846 228.541 53.8831 231.219C48.9201 233.897 43.415 235.563 37.7243 236.111C25.2707 212.968 19.5538 187.132 21.1556 161.233H21.1444Z" fill="url(#paint11_radial_3_176)"/>
<path d="M21.1444 161.233C26.5936 159.595 32.3476 159.053 38.0337 159.641C43.7198 160.229 49.2113 161.935 54.1524 164.648C59.0936 167.362 63.3742 171.022 66.717 175.391C70.0599 179.761 72.3904 184.743 73.5576 190.015C74.7249 195.286 74.7029 200.73 73.493 205.993C72.2831 211.256 69.9123 216.221 66.5342 220.566C63.1561 224.912 58.846 228.541 53.8831 231.219C48.9201 233.897 43.415 235.563 37.7243 236.111C25.2707 212.968 19.5538 187.132 21.1556 161.233H21.1444Z" fill="url(#paint12_radial_3_176)"/>
<path d="M21.1444 161.233C26.5936 159.595 32.3476 159.053 38.0337 159.641C43.7198 160.229 49.2113 161.935 54.1524 164.648C59.0936 167.362 63.3742 171.022 66.717 175.391C70.0599 179.761 72.3904 184.743 73.5576 190.015C74.7249 195.286 74.7029 200.73 73.493 205.993C72.2831 211.256 69.9123 216.221 66.5342 220.566C63.1561 224.912 58.846 228.541 53.8831 231.219C48.9201 233.897 43.415 235.563 37.7243 236.111C25.2707 212.968 19.5538 187.132 21.1556 161.233H21.1444Z" fill="url(#paint13_radial_3_176)"/>
<path d="M21.1444 161.233C26.5936 159.595 32.3476 159.053 38.0337 159.641C43.7198 160.229 49.2113 161.935 54.1524 164.648C59.0936 167.362 63.3742 171.022 66.717 175.391C70.0599 179.761 72.3904 184.743 73.5576 190.015C74.7249 195.286 74.7029 200.73 73.493 205.993C72.2831 211.256 69.9123 216.221 66.5342 220.566C63.1561 224.912 58.846 228.541 53.8831 231.219C48.9201 233.897 43.415 235.563 37.7243 236.111C25.2707 212.968 19.5538 187.132 21.1556 161.233H21.1444Z" fill="url(#paint14_radial_3_176)"/>
<g filter="url(#filter3_f_3_176)">
<path d="M163.986 239.575C175.733 248.232 178.944 262.86 171.146 272.243C163.349 281.616 147.496 282.195 135.738 273.539C123.991 264.871 120.791 250.254 128.578 240.871C136.387 231.498 152.239 230.908 163.986 239.575V239.575Z" stroke="url(#paint15_linear_3_176)" stroke-width="0.2"/>
</g>
<path d="M163.986 239.575C175.733 248.232 178.944 262.86 171.146 272.243C163.349 281.616 147.496 282.195 135.738 273.539C123.991 264.871 120.791 250.254 128.578 240.871C136.387 231.498 152.239 230.908 163.986 239.575V239.575Z" fill="url(#paint16_linear_3_176)"/>
<path d="M163.986 239.575C175.733 248.232 178.944 262.86 171.146 272.243C163.349 281.616 147.496 282.195 135.738 273.539C123.991 264.871 120.791 250.254 128.578 240.871C136.387 231.498 152.239 230.908 163.986 239.575V239.575Z" fill="url(#paint17_radial_3_176)"/>
<path d="M163.986 239.575C175.733 248.232 178.944 262.86 171.146 272.243C163.349 281.616 147.496 282.195 135.738 273.539C123.991 264.871 120.791 250.254 128.578 240.871C136.387 231.498 152.239 230.908 163.986 239.575V239.575Z" fill="url(#paint18_radial_3_176)"/>
<path d="M291.166 271.001C272.128 289.92 248.101 303.751 221.535 311.083C216.425 302.412 215.07 292.218 217.755 282.629C220.44 273.041 226.956 264.8 235.943 259.626C244.93 254.453 255.692 252.749 265.982 254.868C276.273 256.988 285.295 262.767 291.166 271.001V271.001Z" fill="#6B438B"/>
<g filter="url(#filter4_f_3_176)">
<path d="M331.195 180.874C324.237 179.647 317.044 180.951 311.069 184.524C305.094 188.098 300.783 193.673 299.007 200.123C297.231 206.574 298.122 213.418 301.502 219.274C304.881 225.129 310.495 229.558 317.21 231.666" stroke="url(#paint19_linear_3_176)" stroke-width="0.3"/>
</g>
<path d="M333.645 181.401C332.169 199.023 327.317 216.249 319.325 232.246C315.707 231.422 312.301 229.927 309.306 227.848C306.311 225.769 303.787 223.148 301.882 220.138C299.977 217.128 298.731 213.79 298.215 210.321C297.699 206.851 297.925 203.32 298.879 199.934C299.832 196.547 301.495 193.374 303.769 190.601C306.043 187.828 308.882 185.51 312.121 183.784C315.359 182.057 318.931 180.957 322.627 180.548C326.324 180.139 330.069 180.429 333.645 181.401V181.401Z" fill="url(#paint20_radial_3_176)"/>
<path d="M333.645 181.401C332.169 199.023 327.317 216.249 319.325 232.246C315.707 231.422 312.301 229.927 309.306 227.848C306.311 225.769 303.787 223.148 301.882 220.138C299.977 217.128 298.731 213.79 298.215 210.321C297.699 206.851 297.925 203.32 298.879 199.934C299.832 196.547 301.495 193.374 303.769 190.601C306.043 187.828 308.882 185.51 312.121 183.784C315.359 182.057 318.931 180.957 322.627 180.548C326.324 180.139 330.069 180.429 333.645 181.401V181.401Z" fill="url(#paint21_radial_3_176)"/>
<path d="M333.645 181.401C332.169 199.023 327.317 216.249 319.325 232.246C315.707 231.422 312.301 229.927 309.306 227.848C306.311 225.769 303.787 223.148 301.882 220.138C299.977 217.128 298.731 213.79 298.215 210.321C297.699 206.851 297.925 203.32 298.879 199.934C299.832 196.547 301.495 193.374 303.769 190.601C306.043 187.828 308.882 185.51 312.121 183.784C315.359 182.057 318.931 180.957 322.627 180.548C326.324 180.139 330.069 180.429 333.645 181.401V181.401Z" fill="url(#paint22_radial_3_176)"/>
<path d="M333.645 181.401C332.169 199.023 327.317 216.249 319.325 232.246C315.707 231.422 312.301 229.927 309.306 227.848C306.311 225.769 303.787 223.148 301.882 220.138C299.977 217.128 298.731 213.79 298.215 210.321C297.699 206.851 297.925 203.32 298.879 199.934C299.832 196.547 301.495 193.374 303.769 190.601C306.043 187.828 308.882 185.51 312.121 183.784C315.359 182.057 318.931 180.957 322.627 180.548C326.324 180.139 330.069 180.429 333.645 181.401V181.401Z" fill="url(#paint23_radial_3_176)"/>
<path d="M333.645 181.401C332.169 199.023 327.317 216.249 319.325 232.246C315.707 231.422 312.301 229.927 309.306 227.848C306.311 225.769 303.787 223.148 301.882 220.138C299.977 217.128 298.731 213.79 298.215 210.321C297.699 206.851 297.925 203.32 298.879 199.934C299.832 196.547 301.495 193.374 303.769 190.601C306.043 187.828 308.882 185.51 312.121 183.784C315.359 182.057 318.931 180.957 322.627 180.548C326.324 180.139 330.069 180.429 333.645 181.401V181.401Z" fill="url(#paint24_radial_3_176)"/>
<g filter="url(#filter5_i_3_176)">
<path fill-rule="evenodd" clip-rule="evenodd" d="M117.905 86.0824C110.548 86.0852 103.492 88.8378 98.2897 93.7352C93.0871 98.6325 90.163 105.274 90.1601 112.2C90.1601 113.596 89.5707 114.936 88.5217 115.923C87.4727 116.911 86.0499 117.466 84.5663 117.466C83.0828 117.466 81.66 116.911 80.6109 115.923C79.5619 114.936 78.9726 113.596 78.9726 112.2C78.9755 102.481 83.0783 93.1608 90.3789 86.2885C97.6795 79.4161 107.58 75.554 117.905 75.5512C119.389 75.5512 120.811 76.106 121.86 77.0935C122.909 78.081 123.499 79.4203 123.499 80.8168C123.499 82.2133 122.909 83.5527 121.86 84.5402C120.811 85.5277 119.389 86.0824 117.905 86.0824Z" fill="url(#paint25_linear_3_176)"/>
<path fill-rule="evenodd" clip-rule="evenodd" d="M117.905 86.0824C110.548 86.0852 103.492 88.8378 98.2897 93.7352C93.0871 98.6325 90.163 105.274 90.1601 112.2C90.1601 113.596 89.5707 114.936 88.5217 115.923C87.4727 116.911 86.0499 117.466 84.5663 117.466C83.0828 117.466 81.66 116.911 80.6109 115.923C79.5619 114.936 78.9726 113.596 78.9726 112.2C78.9755 102.481 83.0783 93.1608 90.3789 86.2885C97.6795 79.4161 107.58 75.554 117.905 75.5512C119.389 75.5512 120.811 76.106 121.86 77.0935C122.909 78.081 123.499 79.4203 123.499 80.8168C123.499 82.2133 122.909 83.5527 121.86 84.5402C120.811 85.5277 119.389 86.0824 117.905 86.0824Z" fill="url(#paint26_radial_3_176)"/>
</g>
<g filter="url(#filter6_i_3_176)">
<path fill-rule="evenodd" clip-rule="evenodd" d="M228.438 80.8168C228.438 79.4203 229.027 78.081 230.076 77.0935C231.125 76.106 232.548 75.5512 234.031 75.5512C244.356 75.554 254.257 79.4161 261.557 86.2885C268.858 93.1608 272.961 102.481 272.964 112.2C272.964 113.596 272.374 114.936 271.325 115.923C270.276 116.911 268.854 117.466 267.37 117.466C265.887 117.466 264.464 116.911 263.415 115.923C262.366 114.936 261.776 113.596 261.776 112.2C261.773 105.274 258.849 98.6325 253.647 93.7352C248.444 88.8378 241.389 86.0852 234.031 86.0824C232.548 86.0824 231.125 85.5277 230.076 84.5402C229.027 83.5527 228.438 82.2133 228.438 80.8168V80.8168Z" fill="url(#paint27_linear_3_176)"/>
<path fill-rule="evenodd" clip-rule="evenodd" d="M228.438 80.8168C228.438 79.4203 229.027 78.081 230.076 77.0935C231.125 76.106 232.548 75.5512 234.031 75.5512C244.356 75.554 254.257 79.4161 261.557 86.2885C268.858 93.1608 272.961 102.481 272.964 112.2C272.964 113.596 272.374 114.936 271.325 115.923C270.276 116.911 268.854 117.466 267.37 117.466C265.887 117.466 264.464 116.911 263.415 115.923C262.366 114.936 261.776 113.596 261.776 112.2C261.773 105.274 258.849 98.6325 253.647 93.7352C248.444 88.8378 241.389 86.0852 234.031 86.0824C232.548 86.0824 231.125 85.5277 230.076 84.5402C229.027 83.5527 228.438 82.2133 228.438 80.8168V80.8168Z" fill="url(#paint28_radial_3_176)"/>
</g>
<g filter="url(#filter7_i_3_176)">
<path fill-rule="evenodd" clip-rule="evenodd" d="M128.198 122.731C125.112 122.712 122.092 123.571 119.533 125.194C116.974 126.818 114.995 129.131 113.855 131.83C113.012 133.74 111.408 135.262 109.386 136.07C107.364 136.878 105.086 136.907 103.041 136.151C100.996 135.396 99.3479 133.916 98.4498 132.029C97.5516 130.142 97.4754 127.998 98.2375 126.059C100.608 120.404 104.735 115.554 110.08 112.142C115.425 108.73 121.739 106.915 128.198 106.934C142.428 106.934 154.533 115.633 158.762 127.734C159.459 129.724 159.288 131.893 158.286 133.764C157.284 135.635 155.534 137.056 153.42 137.712C151.306 138.368 149.001 138.207 147.013 137.264C145.025 136.321 143.517 134.673 142.82 132.683C140.806 126.891 134.988 122.731 128.198 122.731V122.731Z" fill="url(#paint29_linear_3_176)"/>
<path fill-rule="evenodd" clip-rule="evenodd" d="M128.198 122.731C125.112 122.712 122.092 123.571 119.533 125.194C116.974 126.818 114.995 129.131 113.855 131.83C113.012 133.74 111.408 135.262 109.386 136.07C107.364 136.878 105.086 136.907 103.041 136.151C100.996 135.396 99.3479 133.916 98.4498 132.029C97.5516 130.142 97.4754 127.998 98.2375 126.059C100.608 120.404 104.735 115.554 110.08 112.142C115.425 108.73 121.739 106.915 128.198 106.934C142.428 106.934 154.533 115.633 158.762 127.734C159.459 129.724 159.288 131.893 158.286 133.764C157.284 135.635 155.534 137.056 153.42 137.712C151.306 138.368 149.001 138.207 147.013 137.264C145.025 136.321 143.517 134.673 142.82 132.683C140.806 126.891 134.988 122.731 128.198 122.731V122.731Z" fill="url(#paint30_radial_3_176)"/>
</g>
<g filter="url(#filter8_i_3_176)">
<path fill-rule="evenodd" clip-rule="evenodd" d="M224.634 122.731C221.548 122.712 218.528 123.571 215.969 125.194C213.41 126.818 211.431 129.131 210.291 131.83C209.904 132.815 209.312 133.718 208.55 134.485C207.788 135.252 206.871 135.869 205.853 136.298C204.834 136.728 203.735 136.962 202.62 136.986C201.504 137.011 200.395 136.826 199.356 136.442C198.317 136.058 197.37 135.483 196.571 134.751C195.771 134.018 195.134 133.143 194.698 132.176C194.262 131.209 194.036 130.17 194.031 129.12C194.027 128.07 194.245 127.029 194.674 126.059C197.044 120.404 201.171 115.554 206.516 112.142C211.862 108.73 218.176 106.915 224.634 106.934C238.864 106.934 250.969 115.633 255.198 127.734C255.834 129.706 255.625 131.835 254.616 133.665C253.607 135.495 251.878 136.881 249.799 137.527C247.719 138.173 245.453 138.028 243.485 137.123C241.518 136.218 240.004 134.625 239.267 132.683C237.231 126.891 231.436 122.731 224.634 122.731Z" fill="url(#paint31_linear_3_176)"/>
<path fill-rule="evenodd" clip-rule="evenodd" d="M224.634 122.731C221.548 122.712 218.528 123.571 215.969 125.194C213.41 126.818 211.431 129.131 210.291 131.83C209.904 132.815 209.312 133.718 208.55 134.485C207.788 135.252 206.871 135.869 205.853 136.298C204.834 136.728 203.735 136.962 202.62 136.986C201.504 137.011 200.395 136.826 199.356 136.442C198.317 136.058 197.37 135.483 196.571 134.751C195.771 134.018 195.134 133.143 194.698 132.176C194.262 131.209 194.036 130.17 194.031 129.12C194.027 128.07 194.245 127.029 194.674 126.059C197.044 120.404 201.171 115.554 206.516 112.142C211.862 108.73 218.176 106.915 224.634 106.934C238.864 106.934 250.969 115.633 255.198 127.734C255.834 129.706 255.625 131.835 254.616 133.665C253.607 135.495 251.878 136.881 249.799 137.527C247.719 138.173 245.453 138.028 243.485 137.123C241.518 136.218 240.004 134.625 239.267 132.683C237.231 126.891 231.436 122.731 224.634 122.731Z" fill="url(#paint32_radial_3_176)"/>
</g>
<g filter="url(#filter9_ii_3_176)">
<path fill-rule="evenodd" clip-rule="evenodd" d="M120.579 176.019C121.358 175.285 122.283 174.703 123.302 174.306C124.32 173.909 125.412 173.704 126.514 173.704C127.616 173.704 128.708 173.909 129.726 174.306C130.744 174.703 131.67 175.285 132.449 176.019C138.184 181.423 144.994 185.71 152.49 188.634C159.987 191.559 168.022 193.065 176.136 193.065C184.251 193.065 192.285 191.559 199.782 188.634C207.278 185.71 214.088 181.423 219.823 176.019C221.414 174.624 223.518 173.865 225.691 173.901C227.865 173.937 229.939 174.766 231.476 176.213C233.014 177.66 233.894 179.612 233.933 181.659C233.971 183.705 233.164 185.685 231.682 187.182C224.388 194.05 215.728 199.497 206.198 203.214C196.667 206.93 186.452 208.843 176.136 208.843C165.82 208.843 155.605 206.93 146.074 203.214C136.544 199.497 127.884 194.05 120.59 187.182C119.019 185.701 118.136 183.694 118.136 181.601C118.136 179.508 119.019 177.5 120.59 176.019H120.579Z" fill="#352046"/>
<path fill-rule="evenodd" clip-rule="evenodd" d="M120.579 176.019C121.358 175.285 122.283 174.703 123.302 174.306C124.32 173.909 125.412 173.704 126.514 173.704C127.616 173.704 128.708 173.909 129.726 174.306C130.744 174.703 131.67 175.285 132.449 176.019C138.184 181.423 144.994 185.71 152.49 188.634C159.987 191.559 168.022 193.065 176.136 193.065C184.251 193.065 192.285 191.559 199.782 188.634C207.278 185.71 214.088 181.423 219.823 176.019C221.414 174.624 223.518 173.865 225.691 173.901C227.865 173.937 229.939 174.766 231.476 176.213C233.014 177.66 233.894 179.612 233.933 181.659C233.971 183.705 233.164 185.685 231.682 187.182C224.388 194.05 215.728 199.497 206.198 203.214C196.667 206.93 186.452 208.843 176.136 208.843C165.82 208.843 155.605 206.93 146.074 203.214C136.544 199.497 127.884 194.05 120.59 187.182C119.019 185.701 118.136 183.694 118.136 181.601C118.136 179.508 119.019 177.5 120.59 176.019H120.579Z" fill="url(#paint33_linear_3_176)"/>
<path fill-rule="evenodd" clip-rule="evenodd" d="M120.579 176.019C121.358 175.285 122.283 174.703 123.302 174.306C124.32 173.909 125.412 173.704 126.514 173.704C127.616 173.704 128.708 173.909 129.726 174.306C130.744 174.703 131.67 175.285 132.449 176.019C138.184 181.423 144.994 185.71 152.49 188.634C159.987 191.559 168.022 193.065 176.136 193.065C184.251 193.065 192.285 191.559 199.782 188.634C207.278 185.71 214.088 181.423 219.823 176.019C221.414 174.624 223.518 173.865 225.691 173.901C227.865 173.937 229.939 174.766 231.476 176.213C233.014 177.66 233.894 179.612 233.933 181.659C233.971 183.705 233.164 185.685 231.682 187.182C224.388 194.05 215.728 199.497 206.198 203.214C196.667 206.93 186.452 208.843 176.136 208.843C165.82 208.843 155.605 206.93 146.074 203.214C136.544 199.497 127.884 194.05 120.59 187.182C119.019 185.701 118.136 183.694 118.136 181.601C118.136 179.508 119.019 177.5 120.59 176.019H120.579Z" fill="url(#paint34_linear_3_176)"/>
</g>
<g filter="url(#filter10_f_3_176)">
<path d="M125.792 181.106C142.685 196.018 186.619 216.912 227.173 181.106" stroke="url(#paint35_linear_3_176)" stroke-width="0.5" stroke-linecap="round"/>
</g>
<g filter="url(#filter11_f_3_176)">
<path d="M104.816 83.7656C99.2779 86.5037 86.5465 94.7918 85.2375 111.494" stroke="url(#paint36_linear_3_176)" stroke-width="0.5" stroke-linecap="round"/>
</g>
<g filter="url(#filter12_f_3_176)">
<path d="M234.166 80.0691C243.608 79.3003 265.177 82.9336 268.254 106.892" stroke="url(#paint37_linear_3_176)" stroke-width="0.5" stroke-linecap="round"/>
</g>
<g filter="url(#filter13_f_3_176)">
<path d="M105.163 129.429C106.326 123.837 115.936 112.906 131.039 113.959C146.142 115.012 152.128 124.058 153.75 129.44" stroke="url(#paint38_linear_3_176)" stroke-width="0.6" stroke-linecap="round"/>
</g>
<g filter="url(#filter14_f_3_176)">
<path d="M199.786 129.429C200.95 123.837 210.56 112.906 225.663 113.959C240.766 115.012 246.751 124.058 248.385 129.44" stroke="url(#paint39_linear_3_176)" stroke-width="0.6" stroke-linecap="round"/>
</g>
<defs>
<filter id="filter0_i_3_176" x="20.9094" y="21.8762" width="313.228" height="295.104" filterUnits="userSpaceOnUse" color-interpolation-filters="sRGB">
<feFlood flood-opacity="0" result="BackgroundImageFix"/>
<feBlend mode="normal" in="SourceGraphic" in2="BackgroundImageFix" result="shape"/>
<feColorMatrix in="SourceAlpha" type="matrix" values="0 0 0 0 0 0 0 0 0 0 0 0 0 0 0 0 0 0 127 0" result="hardAlpha"/>
<feOffset dy="-0.25"/>
<feGaussianBlur stdDeviation="0.75"/>
<feComposite in2="hardAlpha" operator="arithmetic" k2="-1" k3="1"/>
<feColorMatrix type="matrix" values="0 0 0 0 0.509804 0 0 0 0 0.396078 0 0 0 0 0.631373 0 0 0 1 0"/>
<feBlend mode="normal" in2="shape" result="effect1_innerShadow_3_176"/>
</filter>
<filter id="filter1_f_3_176" x="143.541" y="32.6931" width="56.6204" height="53.3431" filterUnits="userSpaceOnUse" color-interpolation-filters="sRGB">
<feFlood flood-opacity="0" result="BackgroundImageFix"/>
<feBlend mode="normal" in="SourceGraphic" in2="BackgroundImageFix" result="shape"/>
<feGaussianBlur stdDeviation="0.125" result="effect1_foregroundBlur_3_176"/>
</filter>
<filter id="filter2_f_3_176" x="22.8344" y="159.04" width="51.8388" height="77.1005" filterUnits="userSpaceOnUse" color-interpolation-filters="sRGB">
<feFlood flood-opacity="0" result="BackgroundImageFix"/>
<feBlend mode="normal" in="SourceGraphic" in2="BackgroundImageFix" result="shape"/>
<feGaussianBlur stdDeviation="0.15" result="effect1_foregroundBlur_3_176"/>
</filter>
<filter id="filter3_f_3_176" x="123.923" y="233.04" width="51.8837" height="47.0306" filterUnits="userSpaceOnUse" color-interpolation-filters="sRGB">
<feFlood flood-opacity="0" result="BackgroundImageFix"/>
<feBlend mode="normal" in="SourceGraphic" in2="BackgroundImageFix" result="shape"/>
<feGaussianBlur stdDeviation="0.15" result="effect1_foregroundBlur_3_176"/>
</filter>
<filter id="filter4_f_3_176" x="297.713" y="180.024" width="33.7576" height="52.0355" filterUnits="userSpaceOnUse" color-interpolation-filters="sRGB">
<feFlood flood-opacity="0" result="BackgroundImageFix"/>
<feBlend mode="normal" in="SourceGraphic" in2="BackgroundImageFix" result="shape"/>
<feGaussianBlur stdDeviation="0.125" result="effect1_foregroundBlur_3_176"/>
</filter>
<filter id="filter5_i_3_176" x="78.9726" y="75.5512" width="44.5262" height="42.0644" filterUnits="userSpaceOnUse" color-interpolation-filters="sRGB">
<feFlood flood-opacity="0" result="BackgroundImageFix"/>
<feBlend mode="normal" in="SourceGraphic" in2="BackgroundImageFix" result="shape"/>
<feColorMatrix in="SourceAlpha" type="matrix" values="0 0 0 0 0 0 0 0 0 0 0 0 0 0 0 0 0 0 127 0" result="hardAlpha"/>
<feOffset dy="0.15"/>
<feGaussianBlur stdDeviation="0.2"/>
<feComposite in2="hardAlpha" operator="arithmetic" k2="-1" k3="1"/>
<feColorMatrix type="matrix" values="0 0 0 0 0.188235 0 0 0 0 0.0862745 0 0 0 0 0.286275 0 0 0 1 0"/>
<feBlend mode="normal" in2="shape" result="effect1_innerShadow_3_176"/>
</filter>
<filter id="filter6_i_3_176" x="228.338" y="75.5512" width="44.6262" height="42.1144" filterUnits="userSpaceOnUse" color-interpolation-filters="sRGB">
<feFlood flood-opacity="0" result="BackgroundImageFix"/>
<feBlend mode="normal" in="SourceGraphic" in2="BackgroundImageFix" result="shape"/>
<feColorMatrix in="SourceAlpha" type="matrix" values="0 0 0 0 0 0 0 0 0 0 0 0 0 0 0 0 0 0 127 0" result="hardAlpha"/>
<feOffset dx="-0.1" dy="0.2"/>
<feGaussianBlur stdDeviation="0.15"/>
<feComposite in2="hardAlpha" operator="arithmetic" k2="-1" k3="1"/>
<feColorMatrix type="matrix" values="0 0 0 0 0.188235 0 0 0 0 0.0862745 0 0 0 0 0.286275 0 0 0 1 0"/>
<feBlend mode="normal" in2="shape" result="effect1_innerShadow_3_176"/>
</filter>
<filter id="filter7_i_3_176" x="97.5163" y="106.934" width="61.6679" height="31.3253" filterUnits="userSpaceOnUse" color-interpolation-filters="sRGB">
<feFlood flood-opacity="0" result="BackgroundImageFix"/>
<feBlend mode="normal" in="SourceGraphic" in2="BackgroundImageFix" result="shape"/>
<feColorMatrix in="SourceAlpha" type="matrix" values="0 0 0 0 0 0 0 0 0 0 0 0 0 0 0 0 0 0 127 0" result="hardAlpha"/>
<feOffset dx="-0.2" dy="0.15"/>
<feGaussianBlur stdDeviation="0.2"/>
<feComposite in2="hardAlpha" operator="arithmetic" k2="-1" k3="1"/>
<feColorMatrix type="matrix" values="0 0 0 0 0.188235 0 0 0 0 0.0862745 0 0 0 0 0.286275 0 0 0 1 0"/>
<feBlend mode="normal" in2="shape" result="effect1_innerShadow_3_176"/>
</filter>
<filter id="filter8_i_3_176" x="193.831" y="106.934" width="61.7281" height="31.1407" filterUnits="userSpaceOnUse" color-interpolation-filters="sRGB">
<feFlood flood-opacity="0" result="BackgroundImageFix"/>
<feBlend mode="normal" in="SourceGraphic" in2="BackgroundImageFix" result="shape"/>
<feColorMatrix in="SourceAlpha" type="matrix" values="0 0 0 0 0 0 0 0 0 0 0 0 0 0 0 0 0 0 127 0" result="hardAlpha"/>
<feOffset dx="-0.2" dy="0.15"/>
<feGaussianBlur stdDeviation="0.2"/>
<feComposite in2="hardAlpha" operator="arithmetic" k2="-1" k3="1"/>
<feColorMatrix type="matrix" values="0 0 0 0 0.188235 0 0 0 0 0.0862745 0 0 0 0 0.286275 0 0 0 1 0"/>
<feBlend mode="normal" in2="shape" result="effect1_innerShadow_3_176"/>
</filter>
<filter id="filter9_ii_3_176" x="117.886" y="173.704" width="116.048" height="35.3891" filterUnits="userSpaceOnUse" color-interpolation-filters="sRGB">
<feFlood flood-opacity="0" result="BackgroundImageFix"/>
<feBlend mode="normal" in="SourceGraphic" in2="BackgroundImageFix" result="shape"/>
<feColorMatrix in="SourceAlpha" type="matrix" values="0 0 0 0 0 0 0 0 0 0 0 0 0 0 0 0 0 0 127 0" result="hardAlpha"/>
<feOffset dx="-0.25" dy="0.25"/>
<feGaussianBlur stdDeviation="0.625"/>
<feComposite in2="hardAlpha" operator="arithmetic" k2="-1" k3="1"/>
<feColorMatrix type="matrix" values="0 0 0 0 0.223529 0 0 0 0 0.133333 0 0 0 0 0.309804 0 0 0 1 0"/>
<feBlend mode="normal" in2="shape" result="effect1_innerShadow_3_176"/>
<feColorMatrix in="SourceAlpha" type="matrix" values="0 0 0 0 0 0 0 0 0 0 0 0 0 0 0 0 0 0 127 0" result="hardAlpha"/>
<feOffset dy="0.25"/>
<feGaussianBlur stdDeviation="0.125"/>
<feComposite in2="hardAlpha" operator="arithmetic" k2="-1" k3="1"/>
<feColorMatrix type="matrix" values="0 0 0 0 0.156863 0 0 0 0 0.101961 0 0 0 0 0.211765 0 0 0 1 0"/>
<feBlend mode="normal" in2="effect1_innerShadow_3_176" result="effect2_innerShadow_3_176"/>
</filter>
<filter id="filter10_f_3_176" x="125.242" y="180.556" width="102.481" height="20.8684" filterUnits="userSpaceOnUse" color-interpolation-filters="sRGB">
<feFlood flood-opacity="0" result="BackgroundImageFix"/>
<feBlend mode="normal" in="SourceGraphic" in2="BackgroundImageFix" result="shape"/>
<feGaussianBlur stdDeviation="0.15" result="effect1_foregroundBlur_3_176"/>
</filter>
<filter id="filter11_f_3_176" x="84.7375" y="83.2655" width="20.5782" height="28.7288" filterUnits="userSpaceOnUse" color-interpolation-filters="sRGB">
<feFlood flood-opacity="0" result="BackgroundImageFix"/>
<feBlend mode="normal" in="SourceGraphic" in2="BackgroundImageFix" result="shape"/>
<feGaussianBlur stdDeviation="0.125" result="effect1_foregroundBlur_3_176"/>
</filter>
<filter id="filter12_f_3_176" x="233.666" y="79.4771" width="35.0884" height="27.9151" filterUnits="userSpaceOnUse" color-interpolation-filters="sRGB">
<feFlood flood-opacity="0" result="BackgroundImageFix"/>
<feBlend mode="normal" in="SourceGraphic" in2="BackgroundImageFix" result="shape"/>
<feGaussianBlur stdDeviation="0.125" result="effect1_foregroundBlur_3_176"/>
</filter>
<filter id="filter13_f_3_176" x="104.462" y="113.188" width="49.9874" height="16.952" filterUnits="userSpaceOnUse" color-interpolation-filters="sRGB">
<feFlood flood-opacity="0" result="BackgroundImageFix"/>
<feBlend mode="normal" in="SourceGraphic" in2="BackgroundImageFix" result="shape"/>
<feGaussianBlur stdDeviation="0.2" result="effect1_foregroundBlur_3_176"/>
</filter>
<filter id="filter14_f_3_176" x="199.086" y="113.188" width="49.9986" height="16.952" filterUnits="userSpaceOnUse" color-interpolation-filters="sRGB">
<feFlood flood-opacity="0" result="BackgroundImageFix"/>
<feBlend mode="normal" in="SourceGraphic" in2="BackgroundImageFix" result="shape"/>
<feGaussianBlur stdDeviation="0.2" result="effect1_foregroundBlur_3_176"/>
</filter>
<radialGradient id="paint0_radial_3_176" cx="0" cy="0" r="1" gradientUnits="userSpaceOnUse" gradientTransform="translate(239.073 124.488) rotate(141.381) scale(224.626 230.719)">
<stop stop-color="#A27ACE"/>
<stop offset="1" stop-color="#60348C"/>
</radialGradient>
<radialGradient id="paint1_radial_3_176" cx="0" cy="0" r="1" gradientUnits="userSpaceOnUse" gradientTransform="translate(244.659 169.553) rotate(172.023) scale(216.051 327.422)">
<stop offset="0.444" stop-color="#544269" stop-opacity="0"/>
<stop offset="1" stop-color="#544269"/>
</radialGradient>
<radialGradient id="paint2_radial_3_176" cx="0" cy="0" r="1" gradientUnits="userSpaceOnUse" gradientTransform="translate(28.7002 224.46) rotate(-13.7582) scale(140.791 133.495)">
<stop stop-color="#453C50"/>
<stop offset="1" stop-color="#453C50" stop-opacity="0"/>
</radialGradient>
<radialGradient id="paint3_radial_3_176" cx="0" cy="0" r="1" gradientUnits="userSpaceOnUse" gradientTransform="translate(102.131 169.448) scale(33.0691 31.1293)">
<stop stop-color="#D8585D"/>
<stop offset="1" stop-color="#D8585D" stop-opacity="0"/>
</radialGradient>
<radialGradient id="paint4_radial_3_176" cx="0" cy="0" r="1" gradientUnits="userSpaceOnUse" gradientTransform="translate(250.119 169.448) scale(33.0691 31.1293)">
<stop offset="0.234" stop-color="#E35387"/>
<stop offset="1" stop-color="#E35387" stop-opacity="0"/>
</radialGradient>
<linearGradient id="paint5_linear_3_176" x1="199.786" y1="56.0473" x2="149.274" y2="70.0399" gradientUnits="userSpaceOnUse">
<stop stop-color="#6D4993"/>
<stop offset="1" stop-color="#8D61B9"/>
</linearGradient>
<linearGradient id="paint6_linear_3_176" x1="143.916" y1="59.3647" x2="194.663" y2="59.3647" gradientUnits="userSpaceOnUse">
<stop stop-color="#996BBF"/>
<stop offset="1" stop-color="#7B569B"/>
</linearGradient>
<radialGradient id="paint7_radial_3_176" cx="0" cy="0" r="1" gradientUnits="userSpaceOnUse" gradientTransform="translate(157.017 59.3647) scale(44.7673 40.1563)">
<stop offset="0.681" stop-color="#64487E" stop-opacity="0"/>
<stop offset="1" stop-color="#64487E"/>
</radialGradient>
<radialGradient id="paint8_radial_3_176" cx="0" cy="0" r="1" gradientUnits="userSpaceOnUse" gradientTransform="translate(178.161 59.3647) rotate(180) scale(35.7584 33.5369)">
<stop offset="0.776" stop-color="#A87ACF" stop-opacity="0"/>
<stop offset="1" stop-color="#A87ACF"/>
</radialGradient>
<linearGradient id="paint9_linear_3_176" x1="63.9142" y1="216.975" x2="31.5301" y2="150.545" gradientUnits="userSpaceOnUse">
<stop stop-color="#3E3744"/>
<stop offset="1" stop-color="#504163"/>
</linearGradient>
<radialGradient id="paint10_radial_3_176" cx="0" cy="0" r="1" gradientUnits="userSpaceOnUse" gradientTransform="translate(26.85 201.178) rotate(-21.2819) scale(43.5227 44.529)">
<stop stop-color="#524262"/>
<stop offset="1" stop-color="#4A395D"/>
</radialGradient>
<radialGradient id="paint11_radial_3_176" cx="0" cy="0" r="1" gradientUnits="userSpaceOnUse" gradientTransform="translate(56.5744 195.579) rotate(169.338) scale(33.7963 91.0103)">
<stop offset="0.721" stop-color="#6A6373" stop-opacity="0"/>
<stop offset="1" stop-color="#6A6373"/>
</radialGradient>
<radialGradient id="paint12_radial_3_176" cx="0" cy="0" r="1" gradientUnits="userSpaceOnUse" gradientTransform="translate(56.5629 195.587) rotate(168.928) scale(32.7741 88.2873)">
<stop offset="0.93" stop-color="#5B5167" stop-opacity="0"/>
<stop offset="1" stop-color="#5B5167"/>
</radialGradient>
<radialGradient id="paint13_radial_3_176" cx="0" cy="0" r="1" gradientUnits="userSpaceOnUse" gradientTransform="translate(33.1486 200.841) rotate(-74.3809) scale(42.2023 43.8534)">
<stop offset="0.934" stop-color="#624C7A" stop-opacity="0"/>
<stop offset="1" stop-color="#624C7A"/>
</radialGradient>
<radialGradient id="paint14_radial_3_176" cx="0" cy="0" r="1" gradientUnits="userSpaceOnUse" gradientTransform="translate(40.0289 184.023) rotate(83.906) scale(52.3672 44.5626)">
<stop offset="0.876" stop-color="#57545C" stop-opacity="0"/>
<stop offset="1" stop-color="#57545C"/>
</radialGradient>
<linearGradient id="paint15_linear_3_176" x1="161.447" y1="237.374" x2="140.661" y2="273.219" gradientUnits="userSpaceOnUse">
<stop stop-color="#563775"/>
<stop offset="1" stop-color="#52336B"/>
</linearGradient>
<linearGradient id="paint16_linear_3_176" x1="126.139" y1="242.314" x2="176.151" y2="270.138" gradientUnits="userSpaceOnUse">
<stop stop-color="#583676"/>
<stop offset="1" stop-color="#5E407C"/>
</linearGradient>
<radialGradient id="paint17_radial_3_176" cx="0" cy="0" r="1" gradientUnits="userSpaceOnUse" gradientTransform="translate(149.868 245.094) rotate(86.049) scale(36.2755 30.3467)">
<stop offset="0.822" stop-color="#674F7D" stop-opacity="0"/>
<stop offset="1" stop-color="#674F7D"/>
</radialGradient>
<radialGradient id="paint18_radial_3_176" cx="0" cy="0" r="1" gradientUnits="userSpaceOnUse" gradientTransform="translate(149.868 262.418) rotate(-121.257) scale(32.424 28.9642)">
<stop offset="0.788" stop-color="#4F2D6E" stop-opacity="0"/>
<stop offset="1" stop-color="#4F2D6E"/>
</radialGradient>
<linearGradient id="paint19_linear_3_176" x1="315.935" y1="180.442" x2="315.935" y2="232.246" gradientUnits="userSpaceOnUse">
<stop stop-color="#8059AC"/>
<stop offset="1" stop-color="#9169BE"/>
</linearGradient>
<radialGradient id="paint20_radial_3_176" cx="0" cy="0" r="1" gradientUnits="userSpaceOnUse" gradientTransform="translate(300.944 197.882) rotate(21.7154) scale(29.3526 18.1026)">
<stop stop-color="#9D6BC8"/>
<stop offset="1" stop-color="#9C77BF"/>
</radialGradient>
<radialGradient id="paint21_radial_3_176" cx="0" cy="0" r="1" gradientUnits="userSpaceOnUse" gradientTransform="translate(302.51 199.041) rotate(12.4104) scale(27.564 66.6514)">
<stop offset="0.874" stop-color="#A385C1" stop-opacity="0"/>
<stop offset="1" stop-color="#A385C1"/>
</radialGradient>
<radialGradient id="paint22_radial_3_176" cx="0" cy="0" r="1" gradientUnits="userSpaceOnUse" gradientTransform="translate(301.901 198.21) rotate(13.7686) scale(28.3463 60.4472)">
<stop offset="0.95" stop-color="#A385C1" stop-opacity="0"/>
<stop offset="1" stop-color="#9A72BF"/>
</radialGradient>
<radialGradient id="paint23_radial_3_176" cx="0" cy="0" r="1" gradientUnits="userSpaceOnUse" gradientTransform="translate(327.682 201.831) rotate(110.735) scale(31.8464 30.4241)">
<stop offset="0.9" stop-color="#AF8DCF" stop-opacity="0"/>
<stop offset="1" stop-color="#AF8DCF"/>
</radialGradient>
<radialGradient id="paint24_radial_3_176" cx="0" cy="0" r="1" gradientUnits="userSpaceOnUse" gradientTransform="translate(326.462 212.858) rotate(-105.096) scale(32.5527 32.7202)">
<stop offset="0.902" stop-color="#7F59A4" stop-opacity="0"/>
<stop offset="1" stop-color="#7F59A4"/>
</radialGradient>
<linearGradient id="paint25_linear_3_176" x1="118.274" y1="73.7609" x2="79.4743" y2="114.979" gradientUnits="userSpaceOnUse">
<stop stop-color="#28212F"/>
<stop offset="1" stop-color="#231F26"/>
</linearGradient>
<radialGradient id="paint26_radial_3_176" cx="0" cy="0" r="1" gradientUnits="userSpaceOnUse" gradientTransform="translate(122.179 79.1529) rotate(159.849) scale(9.34208 7.08905)">
<stop offset="0.109" stop-color="#48424F"/>
<stop offset="1" stop-color="#48424F" stop-opacity="0"/>
</radialGradient>
<linearGradient id="paint27_linear_3_176" x1="267.739" y1="73.7609" x2="228.939" y2="114.979" gradientUnits="userSpaceOnUse">
<stop stop-color="#28212F"/>
<stop offset="1" stop-color="#231F26"/>
</linearGradient>
<radialGradient id="paint28_radial_3_176" cx="0" cy="0" r="1" gradientUnits="userSpaceOnUse" gradientTransform="translate(272.964 117.466) rotate(-123.889) scale(16.9051 13.7545)">
<stop offset="0.109" stop-color="#48424F"/>
<stop offset="1" stop-color="#48424F" stop-opacity="0"/>
</radialGradient>
<linearGradient id="paint29_linear_3_176" x1="151.96" y1="105.607" x2="128.652" y2="151.616" gradientUnits="userSpaceOnUse">
<stop stop-color="#28212F"/>
<stop offset="1" stop-color="#231F26"/>
</linearGradient>
<radialGradient id="paint30_radial_3_176" cx="0" cy="0" r="1" gradientUnits="userSpaceOnUse" gradientTransform="translate(157.364 109.613) rotate(168.828) scale(12.3546 5.51003)">
<stop offset="0.109" stop-color="#48424F"/>
<stop offset="1" stop-color="#48424F" stop-opacity="0"/>
</radialGradient>
<linearGradient id="paint31_linear_3_176" x1="248.396" y1="105.607" x2="225.088" y2="151.616" gradientUnits="userSpaceOnUse">
<stop stop-color="#28212F"/>
<stop offset="1" stop-color="#231F26"/>
</linearGradient>
<radialGradient id="paint32_radial_3_176" cx="0" cy="0" r="1" gradientUnits="userSpaceOnUse" gradientTransform="translate(253.8 109.607) rotate(168.828) scale(12.3546 5.51003)">
<stop offset="0.109" stop-color="#48424F"/>
<stop offset="1" stop-color="#48424F" stop-opacity="0"/>
</radialGradient>
<linearGradient id="paint33_linear_3_176" x1="119.494" y1="173.702" x2="128.513" y2="180.968" gradientUnits="userSpaceOnUse">
<stop stop-color="#211928"/>
<stop offset="1" stop-color="#211928" stop-opacity="0"/>
</linearGradient>
<linearGradient id="paint34_linear_3_176" x1="231.022" y1="175.503" x2="224.815" y2="182.796" gradientUnits="userSpaceOnUse">
<stop stop-color="#584B64"/>
<stop offset="1" stop-color="#584B64" stop-opacity="0"/>
</linearGradient>
<linearGradient id="paint35_linear_3_176" x1="229.623" y1="179.126" x2="214.731" y2="215.517" gradientUnits="userSpaceOnUse">
<stop stop-color="#4C3C59"/>
<stop offset="1" stop-color="#3D3645"/>
</linearGradient>
<linearGradient id="paint36_linear_3_176" x1="102.422" y1="80.9432" x2="93.0555" y2="114.322" gradientUnits="userSpaceOnUse">
<stop stop-color="#3F3A44" stop-opacity="0"/>
<stop offset="1" stop-color="#3F3A44"/>
</linearGradient>
<linearGradient id="paint37_linear_3_176" x1="270.525" y1="112.316" x2="223.759" y2="101.165" gradientUnits="userSpaceOnUse">
<stop stop-color="#3F3A44"/>
<stop offset="0.379" stop-color="#3F3A44" stop-opacity="0"/>
<stop offset="0.74" stop-color="#3F3A44"/>
</linearGradient>
<linearGradient id="paint38_linear_3_176" x1="88.0344" y1="122.647" x2="100.104" y2="92.684" gradientUnits="userSpaceOnUse">
<stop stop-color="#3F3A44" stop-opacity="0"/>
<stop offset="1" stop-color="#3F3A44"/>
</linearGradient>
<linearGradient id="paint39_linear_3_176" x1="182.658" y1="122.647" x2="194.728" y2="92.684" gradientUnits="userSpaceOnUse">
<stop stop-color="#3F3A44" stop-opacity="0"/>
<stop offset="1" stop-color="#3F3A44"/>
</linearGradient>
</defs>
</svg>
